<svg width="328" height="146" viewBox="0 0 328 146" fill="none" xmlns="http://www.w3.org/2000/svg">
<rect width="326.348" height="145.583" transform="translate(0.825684 0.0592957)" fill="url(#paint0_linear_1_12497)"/>
<path d="M83.5067 92.9191C87.5819 94.0329 91.2081 93.7091 94.3854 91.9478C97.3641 90.2944 99.5743 87.7539 101.016 84.3263C102.946 79.7373 102.441 74.9714 99.501 70.0285C97.9771 67.4643 96.1186 65.1698 93.9256 63.1452C91.357 60.7752 89.4403 58.5908 88.1754 56.592C85.9868 53.1342 85.9069 49.4648 87.9359 45.5838C88.0006 45.4586 88.0395 45.3507 88.0524 45.2601C88.0956 44.9535 88.0071 44.9341 87.7869 45.2018C84.7176 48.9187 83.1548 53.173 83.0987 57.9648C83.0901 58.8239 83.2045 59.6484 83.4419 60.4384C83.7441 61.427 84.0808 62.1954 84.4521 62.7437C85.8249 64.7468 87.1264 66.793 88.3568 68.8824C89.6432 71.0711 90.3792 73.2468 90.5649 75.4096C90.8282 78.4358 89.8936 81.1145 87.761 83.4456C85.8572 85.5221 84.6463 86.9035 84.1283 87.5899C83.0404 89.0317 82.6433 90.5988 82.9368 92.291C82.9622 92.4384 83.0292 92.5757 83.1301 92.6869C83.231 92.7981 83.3615 92.8786 83.5067 92.9191Z" stroke="#76356B" stroke-width="2"/>
<path d="M92.5594 49.8576C90.4009 51.9427 90.1009 54.2674 91.6593 56.8317C92.3069 57.9023 93.5199 59.2081 95.2985 60.7493C95.4669 60.8961 95.5467 60.8615 95.5381 60.6457C95.4733 59.165 95.0265 57.7965 94.1977 56.5403C92.9371 54.6365 92.4968 52.4651 92.8767 50.026C92.9328 49.6547 92.8271 49.5986 92.5594 49.8576Z" stroke="#805038" stroke-width="2"/>
<path d="M77.5479 75.5132C76.391 74.6671 75.9809 73.4994 76.3176 72.01C76.6068 70.7365 76.8032 69.8192 76.9069 69.258C76.95 69.0335 76.909 69.0141 76.7838 69.1997C73.8051 73.6375 73.0583 78.4876 74.5433 83.7499C75.5146 87.1819 77.4724 89.8951 80.4165 91.8896C80.9691 92.2651 81.1957 92.1227 81.0964 91.4622C80.8892 90.1455 81.1979 88.8547 82.0224 87.5899C82.6311 86.6617 83.8226 85.3343 85.5969 83.6075C87.0085 82.2347 87.9302 81.0152 88.3619 79.9489C89.5879 76.927 89.2835 73.8728 87.4488 70.7862C86.1753 68.6493 84.9277 66.4951 83.706 64.3237C82.4714 62.1307 81.8433 59.7823 81.8217 57.2784C81.8174 57.0626 81.7785 57.0561 81.7051 57.259C80.8072 59.6765 80.7511 62.0918 81.5368 64.505C82.003 65.9339 82.2383 66.6613 82.2426 66.6872C82.7822 69.0918 82.534 71.3517 81.4979 73.467C80.8331 74.8225 79.7129 75.5585 78.1372 75.6751C77.9242 75.6918 77.7153 75.6344 77.5479 75.5132Z" stroke="#805038" stroke-width="2"/>
<path d="M66.6572 74.3735C66.5986 74.3693 66.5405 74.3868 66.494 74.4226C66.4474 74.4584 66.4156 74.5101 66.4047 74.5678C65.8823 77.309 65.8651 80.1194 66.3529 82.9988C66.3798 83.156 66.4644 83.2975 66.5901 83.3957C66.7159 83.4939 66.8737 83.5417 67.0328 83.5297C67.9911 83.4607 68.8222 83.5902 69.5258 83.9183C70.2079 84.2377 70.7713 84.7989 71.2159 85.6019C72.2649 87.5057 71.8483 89.3231 69.9662 91.0542C69.8974 91.1173 69.8536 91.2031 69.8429 91.2959C69.8322 91.3886 69.8553 91.4821 69.9079 91.5593C71.5613 93.994 73.5945 95.9863 76.0077 97.5361C76.0817 97.5823 76.1702 97.5998 76.257 97.5856C76.3438 97.5713 76.4231 97.5262 76.4804 97.4584C78.0518 95.5891 79.8066 95.1661 81.7449 96.1892C82.604 96.6425 83.2192 97.2317 83.5904 97.957C83.9833 98.7297 84.1301 99.6168 84.0308 100.618C84.0224 100.711 84.0482 100.804 84.1033 100.878C84.1583 100.952 84.2387 101.003 84.3286 101.02C87.2296 101.577 90.109 101.575 92.9668 101.013C93.0507 100.995 93.1248 100.945 93.1749 100.874C93.2251 100.802 93.2478 100.713 93.2388 100.625C93.0359 98.7427 93.6122 97.3483 94.9677 96.4417C95.9088 95.8071 96.8823 95.5697 97.8882 95.7294C98.9242 95.8978 99.8481 96.4676 100.66 97.4389C100.744 97.5383 100.861 97.6033 100.989 97.6213C101.117 97.6392 101.247 97.6089 101.353 97.5361C103.684 95.9215 105.672 93.9271 107.316 91.5528C107.369 91.4752 107.393 91.3817 107.383 91.2892C107.374 91.1967 107.332 91.1111 107.265 91.0477C105.223 89.1526 104.877 87.2186 106.229 85.2457C106.699 84.5593 107.278 84.0845 107.964 83.8211C108.672 83.5492 109.449 83.4477 110.295 83.5168C110.435 83.5268 110.573 83.4843 110.682 83.3979C110.791 83.3115 110.864 83.1875 110.884 83.0506C111.346 80.0417 111.344 77.2766 110.878 74.7556C110.867 74.6928 110.836 74.6354 110.789 74.5921C110.742 74.5488 110.682 74.5221 110.619 74.516C106.837 74.1404 105.171 72.3337 105.62 69.096C105.732 68.2715 106.276 67.5333 107.252 66.8814C107.323 66.8321 107.374 66.7588 107.393 66.6768C107.412 66.5948 107.399 66.5103 107.355 66.4411C105.805 63.9891 103.77 61.9472 101.249 60.3154C101.172 60.2652 101.08 60.2448 100.989 60.2579C100.899 60.271 100.816 60.3168 100.757 60.3866C99.9236 61.3752 98.9609 61.9666 97.8687 62.1609C97.5363 62.2213 97.4932 62.3659 97.7392 62.5947C99.548 64.3042 101.096 66.1864 102.382 68.2413C105.698 73.5295 106.332 78.7962 104.286 84.0413C103.211 86.8085 101.59 89.1072 99.4228 90.9376C97.1262 92.8716 94.4735 94.089 91.4645 94.5898C88.7362 95.0387 86.1072 94.8747 83.5775 94.0976C80.9312 93.2817 78.6195 91.855 76.6423 89.8174C73.1758 86.2386 71.5613 82.0965 71.7987 77.391C71.9368 74.6584 72.6837 72.0251 74.0392 69.491C75.317 67.1124 77.0438 64.9194 79.2195 62.912C79.7117 62.4544 79.6253 62.1868 78.9605 62.1091C78.218 62.0184 77.3956 61.4486 76.4934 60.3995C76.4206 60.3159 76.3193 60.2622 76.2092 60.2491C76.0991 60.2359 75.9881 60.2641 75.8976 60.3283C73.4154 62.0983 71.4166 64.1056 69.9014 66.3505C69.8532 66.4248 69.8345 66.5144 69.8489 66.6018C69.8633 66.6892 69.9097 66.7681 69.9791 66.8232C71.4771 68.019 72.0361 69.4543 71.6562 71.1293C71.3972 72.2647 70.8187 73.1151 69.9208 73.6806C69.0229 74.2418 67.935 74.4728 66.6572 74.3735Z" stroke="#8F92A0" stroke-width="2"/>
<path d="M212.186 70.514L211.966 64.7574C211.962 64.6659 211.927 64.5778 211.866 64.5065C211.805 64.4353 211.722 64.3847 211.629 64.3624C209.95 63.9782 208.074 63.9566 206.002 64.2976C205.828 64.3254 205.67 64.4137 205.556 64.5467C205.442 64.6796 205.38 64.8485 205.38 65.0229L205.341 85.4399C205.341 85.5892 205.37 85.7371 205.427 85.875C205.483 86.0129 205.566 86.1381 205.67 86.2435C205.774 86.3488 205.897 86.4321 206.033 86.4887C206.169 86.5452 206.315 86.5739 206.461 86.5731L210.806 86.5472C210.899 86.5474 210.993 86.523 211.082 86.4758C211.17 86.4287 211.251 86.36 211.318 86.2752L211.771 85.6924C211.824 85.6261 211.902 85.5837 211.989 85.5741C212.076 85.5644 212.165 85.5883 212.238 85.6406C213.563 86.5817 215.149 86.9487 216.997 86.7414C220.109 86.3918 221.977 84.7578 222.598 81.8395C223.177 79.1285 223.198 76.7693 222.663 74.7619C221.657 70.9759 219.067 69.3571 214.892 69.9053C214.344 69.9787 213.537 70.2464 212.471 70.7083C212.44 70.7221 212.407 70.7276 212.374 70.7245C212.341 70.7214 212.309 70.7098 212.281 70.6905C212.253 70.6713 212.229 70.6452 212.213 70.6144C212.196 70.5836 212.187 70.5491 212.186 70.514Z" stroke="#8F92A0" stroke-width="2"/>
<path d="M142.607 78.9259C142.412 79.9965 141.847 80.6592 140.91 80.9139C138.234 81.6477 136.781 80.6376 136.552 77.8834C136.393 75.9321 136.459 73.9571 136.753 71.9583C136.882 71.0777 137.362 70.4733 138.191 70.1452C139.939 69.4588 141.342 69.9207 142.4 71.531C142.455 71.6168 142.53 71.6876 142.617 71.7373C142.704 71.787 142.8 71.814 142.898 71.8159C144.539 71.8547 146.179 71.8677 147.819 71.8547C147.867 71.8504 148.115 71.8655 148.564 71.9001C149.583 71.9735 149.978 71.3432 149.749 70.0092C149.589 69.0854 149.197 68.2781 148.571 67.5874C147.077 65.9384 145.227 64.898 143.021 64.4663C141.588 64.1857 140.071 64.0907 138.469 64.1814C136.906 64.272 135.406 64.6325 133.969 65.2628C132.881 65.7419 131.976 66.3657 131.255 67.1342C130.383 68.0666 129.837 69.0574 129.617 70.1064C129.082 72.6965 129.06 75.904 129.552 79.7288C129.932 82.6773 131.357 84.6782 133.826 85.7316C137.349 87.2339 141.061 87.2295 144.964 85.7186C147.433 84.7603 148.957 82.9881 149.535 80.4023C149.924 78.6539 150.058 76.6444 149.937 74.3737C149.925 74.1545 149.836 73.9481 149.688 73.7974C149.539 73.6467 149.343 73.5632 149.14 73.5643L140.425 73.6031C140.331 73.6032 140.239 73.6353 140.162 73.6946C140.085 73.754 140.027 73.8376 139.997 73.9333C139.609 75.1896 139.609 76.4437 139.997 77.6956C140.027 77.7887 140.081 77.8727 140.153 77.9396C140.226 78.0065 140.315 78.054 140.412 78.0776L142.328 78.5309C142.419 78.5538 142.499 78.6074 142.55 78.6807C142.602 78.7541 142.622 78.8418 142.607 78.9259Z" stroke="#8F92A0" stroke-width="2"/>
<path d="M167.823 81.328C166.843 81.2244 165.781 81.1877 164.637 81.2179C164.594 81.2179 164.212 81.1985 163.491 81.1597C162.697 81.1165 162.03 81.3712 161.49 81.9238C161.31 82.1043 161.123 82.2249 160.959 82.2669C160.065 82.5044 159.429 82.1655 159.049 81.2503C158.997 81.1245 158.976 80.9878 158.99 80.8523C159.003 80.7167 159.049 80.5866 159.125 80.4732C159.2 80.3599 159.303 80.267 159.423 80.2026C159.543 80.1382 159.677 80.1044 159.813 80.1042H168.27C168.483 80.1042 168.688 80.0198 168.84 79.8694C168.991 79.719 169.078 79.5148 169.079 79.3012C169.131 72.4286 165.731 69.2902 158.88 69.8859C155.768 70.1579 153.663 71.6214 152.567 74.2763C151.561 76.7154 151.47 79.1954 152.295 81.7165C152.783 83.1973 153.54 84.3153 154.568 85.0708C155.664 85.8738 156.994 86.3767 158.557 86.5796C161.32 86.9422 163.765 86.558 165.893 85.427C167.085 84.7967 167.974 83.8685 168.561 82.6425C168.625 82.5099 168.656 82.3638 168.651 82.2166C168.647 82.0693 168.606 81.9252 168.534 81.7964C168.462 81.6676 168.359 81.5578 168.236 81.4763C168.112 81.3948 167.97 81.3439 167.823 81.328Z" stroke="#8F92A0" stroke-width="2"/>
<path d="M180.966 85.7898C181.247 86.42 181.739 86.7049 182.443 86.6445C182.939 86.6013 183.205 86.5798 183.239 86.5798C184.262 86.5798 185.368 86.5798 186.555 86.5798C186.77 86.5798 186.976 86.4958 187.129 86.3458C187.283 86.1957 187.372 85.9915 187.377 85.7768C187.429 83.8299 187.444 81.8311 187.422 79.7806C187.388 76.6983 187.293 74.8744 187.138 74.3088C186.581 72.2626 185.102 70.9049 182.702 70.2358C179.615 69.381 176.675 69.707 173.882 71.2136C172.695 71.8568 171.903 72.826 171.506 74.1211C171.465 74.2522 171.455 74.3911 171.477 74.5266C171.5 74.662 171.553 74.7901 171.633 74.9005C171.713 75.0108 171.818 75.1004 171.938 75.1619C172.059 75.2233 172.193 75.255 172.328 75.2542L176.809 75.2154C177.001 75.2155 177.201 75.1374 177.373 74.9952C177.873 74.5851 178.432 74.3175 179.05 74.1923C179.456 74.1059 179.803 74.1664 180.092 74.3736C180.528 74.6801 180.621 75.0816 180.371 75.578C180.331 75.6609 180.265 75.7325 180.18 75.7859C180.095 75.8393 179.993 75.8726 179.885 75.8824C178.279 76.0291 176.723 76.3508 175.216 76.8472C173.425 77.4386 172.11 78.2653 171.273 79.3273C170.06 80.8728 170.014 82.4851 171.137 84.1644C171.974 85.412 173.146 86.2214 174.653 86.5927C176.669 87.0978 178.642 86.787 180.571 85.6602C180.605 85.6408 180.642 85.6288 180.681 85.6249C180.719 85.6209 180.758 85.6252 180.795 85.6373C180.833 85.6495 180.867 85.6694 180.896 85.6956C180.926 85.7219 180.95 85.7539 180.966 85.7898Z" stroke="#8F92A0" stroke-width="2"/>
<path d="M242.466 76.9597C242.467 76.0277 242.285 75.1045 241.93 74.2428C241.575 73.3811 241.054 72.5978 240.396 71.9376C239.738 71.2775 238.956 70.7533 238.096 70.3952C237.236 70.037 236.313 69.8518 235.381 69.8502L232.079 69.8445C231.147 69.8428 230.223 70.0248 229.362 70.3799C228.5 70.7351 227.717 71.2565 227.057 71.9143C226.396 72.5722 225.872 73.3537 225.514 74.2141C225.156 75.0745 224.971 75.9971 224.969 76.9291L224.964 79.6876C224.963 80.6196 225.145 81.5428 225.5 82.4045C225.855 83.2662 226.376 84.0495 227.034 84.7096C227.692 85.3698 228.474 85.8939 229.334 86.2521C230.195 86.6102 231.117 86.7954 232.049 86.797L235.351 86.8028C236.283 86.8044 237.207 86.6225 238.068 86.2673C238.93 85.9122 239.713 85.3908 240.373 84.7329C241.034 84.0751 241.558 83.2936 241.916 82.4332C242.274 81.5727 242.459 80.6502 242.461 79.7182L242.466 76.9597Z" stroke="#8F92A0" stroke-width="2"/>
<path d="M196.924 71.2391L196.477 70.4685C196.424 70.3761 196.352 70.2988 196.268 70.2443C196.184 70.1899 196.091 70.16 195.998 70.1577L190.999 70.1059C190.906 70.105 190.813 70.1235 190.727 70.1602C190.641 70.1969 190.562 70.2512 190.496 70.3198C190.429 70.3884 190.377 70.4701 190.341 70.5601C190.305 70.6501 190.287 70.7466 190.287 70.8441V85.7829C190.287 85.9844 190.365 86.1778 190.504 86.3209C190.644 86.464 190.833 86.5453 191.031 86.547L196.14 86.5794C196.391 86.5808 196.631 86.4769 196.811 86.2903C196.99 86.1037 197.094 85.8493 197.099 85.5822L197.248 77.5073C197.265 76.6698 197.666 76.236 198.452 76.2058L202.422 76.0762C203.289 76.046 203.723 75.6359 203.723 74.8459V71.1485C203.723 70.8815 203.628 70.6233 203.455 70.4203C203.282 70.2173 203.041 70.0828 202.778 70.0412C200.883 69.7303 199.074 70.162 197.351 71.3362C197.317 71.3596 197.279 71.3757 197.239 71.3835C197.198 71.3912 197.156 71.3905 197.116 71.3814C197.076 71.3723 197.038 71.3549 197.005 71.3304C196.972 71.3059 196.944 71.2748 196.924 71.2391Z" stroke="#8F92A0" stroke-width="2"/>
<path d="M247.736 78.2652L243.255 84.7536C242.404 85.9796 242.713 86.5883 244.181 86.5797L248.688 86.5473C248.896 86.5474 249.097 86.4688 249.251 86.3271C250.283 85.386 251.127 84.3327 251.783 83.1671C251.817 83.1058 251.866 83.0544 251.925 83.0175C251.985 82.9807 252.053 82.9597 252.124 82.9565C252.194 82.9532 252.265 82.9679 252.329 82.9991C252.392 83.0302 252.447 83.0769 252.489 83.1347L254.354 85.712C254.777 86.2904 255.359 86.5797 256.102 86.5797H260.499C261.794 86.5797 262.068 86.0552 261.321 85.0061L256.711 78.5566C256.593 78.3946 256.531 78.1982 256.532 77.995C256.533 77.7918 256.598 77.592 256.717 77.4234L260.751 71.6927C261.511 70.6134 261.248 70.0868 259.961 70.1127L255.072 70.2228C254.99 70.2247 254.902 70.2538 254.816 70.3078C254.729 70.3618 254.646 70.4392 254.574 70.5336L252.502 73.2209C252.479 73.2495 252.449 73.272 252.416 73.2868C252.382 73.3016 252.344 73.3083 252.306 73.3065C252.267 73.3046 252.229 73.2942 252.193 73.276C252.158 73.2579 252.126 73.2324 252.1 73.2014L249.717 70.3393C249.657 70.2645 249.576 70.2041 249.482 70.1627C249.388 70.1212 249.282 70.0997 249.173 70.0997L244.394 70.0673C243.13 70.0587 242.858 70.5832 243.578 71.6409L247.736 77.7342C247.791 77.8119 247.82 77.9046 247.82 77.9997C247.82 78.0948 247.791 78.1876 247.736 78.2652Z" stroke="#8F92A0" stroke-width="2"/>
<path d="M84.8396 95.2436C84.6626 95.1313 84.4662 95.0493 84.2503 94.9975C79.4758 93.7801 75.8042 91.0842 73.2356 86.9097C72.6529 85.96 72.5169 85.8758 72.8277 86.6572C72.8579 86.7392 72.8968 86.8169 72.9443 86.8903C75.6985 91.613 79.5211 94.5313 84.4122 95.6451C91.5093 97.2596 97.4861 95.2522 102.343 89.6229C102.382 89.5797 102.44 89.5301 102.517 89.474C102.604 89.4135 102.653 89.3488 102.666 89.2797C102.723 89.0034 102.638 88.9883 102.414 89.2344C97.8725 94.1902 92.2086 96.2732 85.4224 95.4832C85.254 95.4616 85.0598 95.3817 84.8396 95.2436Z" stroke="#8F92A0" stroke-width="2"/>
<path d="M214.095 81.587C214.365 81.5861 214.631 81.5003 214.88 81.3344C215.128 81.1685 215.354 80.9259 215.543 80.6204C215.733 80.3149 215.883 79.9524 215.984 79.5537C216.086 79.1551 216.138 78.728 216.136 78.2968C216.135 77.8657 216.08 77.439 215.976 77.041C215.871 76.643 215.719 76.2817 215.527 75.9775C215.335 75.6733 215.108 75.4322 214.858 75.2681C214.609 75.104 214.342 75.02 214.072 75.021C213.802 75.0219 213.536 75.1078 213.287 75.2736C213.039 75.4395 212.813 75.6821 212.624 75.9876C212.434 76.2931 212.284 76.6556 212.183 77.0543C212.081 77.453 212.029 77.8801 212.031 78.3112C212.032 78.7423 212.087 79.1691 212.191 79.567C212.296 79.965 212.448 80.3264 212.64 80.6306C212.832 80.9347 213.059 81.1758 213.309 81.3399C213.558 81.504 213.825 81.588 214.095 81.587Z" stroke="#8F92A0" stroke-width="2"/>
<path d="M160.428 74.1727C159.827 74.1468 159.346 74.5353 158.983 75.3383C158.947 75.4217 158.931 75.5125 158.936 75.6033C158.941 75.694 158.966 75.7823 159.011 75.861C159.056 75.9396 159.118 76.0065 159.193 76.0563C159.268 76.1061 159.354 76.1374 159.443 76.1477C161.774 76.4326 162.536 76.0462 161.729 74.9886C161.332 74.4662 160.898 74.1943 160.428 74.1727Z" stroke="#8F92A0" stroke-width="2"/>
<path d="M177.452 80.7128C176.61 81.5676 176.785 82.0662 177.976 82.2087C179.306 82.3684 180.144 81.7209 180.489 80.266C180.503 80.2072 180.503 80.1459 180.49 80.0869C180.476 80.028 180.449 79.9729 180.411 79.926C180.373 79.8791 180.324 79.8415 180.269 79.8163C180.214 79.7911 180.154 79.7788 180.094 79.7804C178.911 79.8149 178.03 80.1257 177.452 80.7128Z" stroke="#8F92A0" stroke-width="2"/>
<path d="M233.696 82.1505C234.208 82.1514 234.699 81.7484 235.062 81.0301C235.426 80.3118 235.631 79.3371 235.632 78.3204C235.633 77.817 235.584 77.3184 235.488 76.8532C235.392 76.3879 235.25 75.9651 235.072 75.6088C234.893 75.2525 234.681 74.9697 234.447 74.7767C234.213 74.5836 233.963 74.484 233.709 74.4836C233.198 74.4827 232.706 74.8858 232.343 75.604C231.98 76.3223 231.775 77.297 231.773 78.3137C231.772 78.8171 231.821 79.3157 231.917 79.781C232.013 80.2462 232.155 80.6691 232.333 81.0254C232.512 81.3816 232.724 81.6644 232.958 81.8574C233.192 82.0505 233.443 82.1501 233.696 82.1505Z" stroke="#8F92A0" stroke-width="2"/>
<path d="M83.5067 92.9191C83.3615 92.8786 83.231 92.7981 83.1301 92.6869C83.0292 92.5757 82.9622 92.4384 82.9368 92.291C82.6433 90.5988 83.0404 89.0317 84.1283 87.5899C84.6463 86.9035 85.8572 85.5221 87.761 83.4456C89.8936 81.1145 90.8282 78.4358 90.5649 75.4096C90.3792 73.2468 89.6432 71.0711 88.3568 68.8824C87.1264 66.793 85.8249 64.7467 84.4521 62.7437C84.0808 62.1954 83.7441 61.427 83.4419 60.4384C83.2045 59.6484 83.0901 58.8239 83.0987 57.9648C83.1548 53.173 84.7176 48.9187 87.7869 45.2018C88.0071 44.9341 88.0956 44.9535 88.0524 45.2601C88.0395 45.3507 88.0006 45.4586 87.9359 45.5838C85.9069 49.4648 85.9868 53.1342 88.1754 56.592C89.4403 58.5908 91.357 60.7752 93.9256 63.1452C96.1186 65.1698 97.9771 67.4643 99.501 70.0285C102.441 74.9714 102.946 79.7373 101.016 84.3263C99.5743 87.7539 97.3641 90.2944 94.3854 91.9478C91.2081 93.7091 87.5819 94.0329 83.5067 92.9191Z" fill="#CE4594"/>
<path d="M92.5594 49.8576C92.8271 49.5986 92.9328 49.6547 92.8767 50.026C92.4968 52.4651 92.9371 54.6365 94.1977 56.5403C95.0265 57.7965 95.4733 59.165 95.5381 60.6457C95.5467 60.8615 95.4669 60.8961 95.2985 60.7493C93.5199 59.2081 92.3069 57.9023 91.6593 56.8317C90.1009 54.2674 90.4009 51.9427 92.5594 49.8576Z" fill="#E17A2E"/>
<path d="M78.1372 75.6751C79.7129 75.5585 80.8331 74.8225 81.4979 73.467C82.534 71.3517 82.7822 69.0918 82.2426 66.6872C82.2383 66.6613 82.003 65.9339 81.5368 64.505C80.7511 62.0918 80.8072 59.6765 81.7051 57.259C81.7785 57.0561 81.8174 57.0626 81.8217 57.2784C81.8433 59.7823 82.4714 62.1307 83.706 64.3237C84.9277 66.4951 86.1753 68.6493 87.4488 70.7862C89.2835 73.8728 89.5879 76.927 88.3619 79.9489C87.9302 81.0152 87.0085 82.2347 85.5969 83.6075C83.8226 85.3343 82.6311 86.6617 82.0224 87.5899C81.1979 88.8547 80.8892 90.1455 81.0964 91.4622C81.1957 92.1227 80.9691 92.2651 80.4165 91.8896C77.4724 89.8951 75.5146 87.1819 74.5433 83.75C73.0583 78.4876 73.8051 73.6375 76.7838 69.1997C76.909 69.0141 76.95 69.0335 76.9069 69.258C76.8032 69.8192 76.6068 70.7365 76.3176 72.01C75.9809 73.4994 76.391 74.6671 77.5479 75.5132C77.7153 75.6344 77.9242 75.6918 78.1372 75.6751Z" fill="#E17A2E"/>
<path d="M66.6572 74.3736C67.935 74.4729 69.0229 74.2419 69.9208 73.6807C70.8187 73.1152 71.3972 72.2647 71.6562 71.1294C72.0361 69.4544 71.4771 68.019 69.9791 66.8232C69.9097 66.7682 69.8633 66.6893 69.8489 66.6019C69.8345 66.5145 69.8532 66.4249 69.9014 66.3505C71.4166 64.1057 73.4154 62.0983 75.8976 60.3284C75.9881 60.2642 76.0991 60.236 76.2092 60.2491C76.3193 60.2623 76.4206 60.3159 76.4934 60.3996C77.3956 61.4486 78.218 62.0185 78.9605 62.1091C79.6253 62.1868 79.7117 62.4545 79.2195 62.9121C77.0438 64.9194 75.317 67.1125 74.0392 69.4911C72.6837 72.0251 71.9368 74.6585 71.7987 77.3911C71.5613 82.0966 73.1758 86.2387 76.6423 89.8174C78.6195 91.855 80.9312 93.2818 83.5775 94.0977C86.1072 94.8747 88.7362 95.0388 91.4645 94.5898C94.4735 94.0891 97.1262 92.8717 99.4228 90.9377C101.59 89.1073 103.211 86.8085 104.286 84.0414C106.332 78.7963 105.698 73.5296 102.382 68.2413C101.096 66.1865 99.548 64.3043 97.7392 62.5948C97.4932 62.366 97.5363 62.2214 97.8687 62.1609C98.9609 61.9667 99.9236 61.3752 100.757 60.3867C100.816 60.3168 100.899 60.2711 100.989 60.2579C101.08 60.2448 101.172 60.2653 101.249 60.3154C103.77 61.9472 105.805 63.9891 107.355 66.4412C107.399 66.5104 107.412 66.5948 107.393 66.6769C107.374 66.7589 107.323 66.8322 107.252 66.8815C106.276 67.5334 105.732 68.2716 105.62 69.0961C105.171 72.3338 106.837 74.1404 110.619 74.516C110.682 74.5221 110.742 74.5489 110.789 74.5922C110.836 74.6354 110.867 74.6928 110.878 74.7556C111.344 77.2767 111.346 80.0417 110.884 83.0506C110.864 83.1875 110.791 83.3115 110.682 83.3979C110.573 83.4844 110.435 83.5268 110.295 83.5169C109.449 83.4478 108.672 83.5492 107.964 83.8212C107.278 84.0845 106.699 84.5594 106.229 85.2458C104.877 87.2186 105.223 89.1526 107.265 91.0478C107.332 91.1111 107.374 91.1967 107.383 91.2892C107.393 91.3818 107.369 91.4752 107.316 91.5528C105.672 93.9272 103.684 95.9216 101.353 97.5361C101.247 97.6089 101.117 97.6393 100.989 97.6213C100.861 97.6034 100.744 97.5384 100.66 97.439C99.8481 96.4677 98.9242 95.8979 97.8882 95.7295C96.8823 95.5698 95.9088 95.8072 94.9677 96.4418C93.6122 97.3484 93.0359 98.7427 93.2388 100.625C93.2478 100.713 93.2251 100.802 93.1749 100.874C93.1248 100.945 93.0507 100.995 92.9668 101.013C90.109 101.575 87.2296 101.577 84.3286 101.02C84.2387 101.003 84.1583 100.952 84.1033 100.878C84.0482 100.804 84.0224 100.711 84.0308 100.618C84.1301 99.6169 83.9833 98.7298 83.5904 97.957C83.2192 97.2318 82.604 96.6425 81.7449 96.1892C79.8066 95.1661 78.0518 95.5892 76.4804 97.4584C76.4231 97.5262 76.3438 97.5714 76.257 97.5856C76.1702 97.5999 76.0817 97.5823 76.0077 97.5361C73.5945 95.9864 71.5613 93.9941 69.9079 91.5593C69.8553 91.4822 69.8322 91.3887 69.8429 91.2959C69.8536 91.2032 69.8974 91.1174 69.9662 91.0542C71.8483 89.3231 72.2649 87.5057 71.2159 85.6019C70.7713 84.799 70.2079 84.2378 69.5258 83.9183C68.8222 83.5902 67.9911 83.4607 67.0328 83.5298C66.8737 83.5418 66.7159 83.494 66.5901 83.3958C66.4644 83.2976 66.3798 83.1561 66.3529 82.9988C65.8651 80.1194 65.8823 77.3091 66.4047 74.5678C66.4156 74.5101 66.4474 74.4584 66.494 74.4226C66.5405 74.3868 66.5986 74.3694 66.6572 74.3736ZM84.8402 95.2438C84.6632 95.1316 84.4668 95.0496 84.2509 94.9978C79.4764 93.7804 75.8048 91.0845 73.2362 86.91C72.6534 85.9602 72.5175 85.8761 72.8283 86.6574C72.8585 86.7395 72.8974 86.8172 72.9448 86.8905C75.6991 91.6133 79.5217 94.5315 84.4128 95.6453C91.5099 97.2599 97.4867 95.2525 102.343 89.6232C102.382 89.58 102.44 89.5304 102.518 89.4742C102.604 89.4138 102.654 89.349 102.667 89.28C102.723 89.0037 102.639 88.9886 102.414 89.2346C97.8731 94.1905 92.2092 96.2734 85.423 95.4834C85.2546 95.4618 85.0604 95.382 84.8402 95.2438Z" fill="white"/>
<path d="M212.471 70.7084C213.537 70.2464 214.344 69.9788 214.893 69.9054C219.067 69.3572 221.657 70.976 222.663 74.762C223.198 76.7694 223.177 79.1286 222.598 81.8396C221.977 84.7579 220.11 86.3918 216.997 86.7415C215.149 86.9487 213.563 86.5818 212.238 85.6407C212.165 85.5883 212.076 85.5645 211.989 85.5741C211.902 85.5838 211.824 85.6262 211.771 85.6925L211.318 86.2753C211.251 86.3601 211.17 86.4287 211.082 86.4759C210.993 86.523 210.899 86.5474 210.807 86.5472L206.462 86.5731C206.315 86.574 206.169 86.5453 206.033 86.4887C205.898 86.4322 205.774 86.3488 205.67 86.2435C205.566 86.1382 205.483 86.013 205.427 85.8751C205.37 85.7372 205.341 85.5893 205.341 85.4399L205.38 65.0229C205.38 64.8486 205.442 64.6797 205.556 64.5467C205.67 64.4138 205.828 64.3254 206.002 64.2977C208.074 63.9567 209.95 63.9782 211.629 64.3624C211.722 64.3847 211.805 64.4353 211.866 64.5066C211.927 64.5779 211.962 64.6659 211.966 64.7574L212.186 70.5141C212.187 70.5492 212.196 70.5836 212.213 70.6144C212.23 70.6452 212.253 70.6714 212.281 70.6906C212.309 70.7098 212.341 70.7215 212.374 70.7246C212.408 70.7277 212.441 70.7221 212.471 70.7084ZM214.095 81.5871C214.364 81.5861 214.631 81.5003 214.879 81.3344C215.128 81.1686 215.353 80.9259 215.543 80.6204C215.732 80.3149 215.882 79.9524 215.984 79.5538C216.086 79.1551 216.137 78.728 216.136 78.2968C216.134 77.8657 216.08 77.439 215.975 77.041C215.871 76.6431 215.718 76.2817 215.526 75.9775C215.335 75.6733 215.108 75.4323 214.858 75.2681C214.608 75.104 214.341 75.02 214.072 75.021C213.802 75.0219 213.535 75.1078 213.287 75.2736C213.039 75.4395 212.813 75.6821 212.624 75.9876C212.434 76.2932 212.284 76.6556 212.182 77.0543C212.081 77.453 212.029 77.8801 212.03 78.3112C212.032 78.7423 212.086 79.1691 212.191 79.567C212.296 79.965 212.448 80.3264 212.64 80.6306C212.831 80.9348 213.059 81.1758 213.308 81.3399C213.558 81.504 213.825 81.588 214.095 81.5871Z" fill="white"/>
<path d="M142.328 78.5307L140.412 78.0774C140.315 78.0538 140.226 78.0062 140.153 77.9393C140.081 77.8724 140.027 77.7884 139.997 77.6953C139.609 76.4434 139.609 75.1893 139.997 73.9331C140.027 73.8374 140.085 73.7538 140.162 73.6944C140.239 73.635 140.331 73.6029 140.425 73.6029L149.14 73.564C149.343 73.563 149.539 73.6465 149.688 73.7972C149.836 73.9479 149.925 74.1542 149.937 74.3734C150.058 76.6441 149.924 78.6537 149.535 80.402C148.957 82.9879 147.433 84.76 144.964 85.7184C141.061 87.2293 137.349 87.2336 133.826 85.7313C131.357 84.678 129.932 82.6771 129.552 79.7286C129.06 75.9038 129.082 72.6963 129.617 70.1061C129.837 69.0571 130.383 68.0664 131.255 67.1339C131.976 66.3655 132.881 65.7417 133.969 65.2625C135.406 64.6322 136.906 64.2718 138.469 64.1811C140.071 64.0905 141.588 64.1854 143.021 64.466C145.227 64.8977 147.077 65.9381 148.571 67.5872C149.197 68.2779 149.589 69.0852 149.749 70.009C149.978 71.3429 149.583 71.9732 148.564 71.8998C148.115 71.8653 147.867 71.8502 147.819 71.8545C146.179 71.8674 144.539 71.8545 142.898 71.8156C142.8 71.8137 142.704 71.7867 142.617 71.7371C142.53 71.6874 142.455 71.6165 142.4 71.5307C141.342 69.9205 139.939 69.4586 138.191 70.145C137.362 70.4731 136.882 71.0774 136.753 71.9581C136.459 73.9568 136.393 75.9319 136.552 77.8831C136.781 80.6373 138.234 81.6475 140.91 80.9136C141.847 80.6589 142.412 79.9963 142.607 78.9257C142.622 78.8415 142.602 78.7539 142.55 78.6805C142.499 78.6071 142.419 78.5536 142.328 78.5307Z" fill="white"/>
<path d="M167.823 81.3281C167.97 81.344 168.112 81.3949 168.235 81.4764C168.359 81.5579 168.462 81.6677 168.534 81.7965C168.606 81.9253 168.646 82.0694 168.651 82.2166C168.656 82.3639 168.625 82.51 168.561 82.6426C167.974 83.8686 167.085 84.7968 165.893 85.427C163.765 86.5581 161.319 86.9423 158.557 86.5797C156.994 86.3768 155.664 85.8738 154.568 85.0709C153.54 84.3154 152.783 83.1973 152.295 81.7166C151.47 79.1955 151.561 76.7154 152.567 74.2764C153.663 71.6214 155.768 70.158 158.88 69.886C165.731 69.2903 169.131 72.4287 169.079 79.3013C169.077 79.5148 168.991 79.7191 168.84 79.8695C168.688 80.0199 168.483 80.1042 168.27 80.1042H159.813C159.677 80.1045 159.543 80.1383 159.423 80.2027C159.303 80.2671 159.2 80.36 159.125 80.4733C159.049 80.5866 159.003 80.7168 158.989 80.8523C158.976 80.9879 158.997 81.1246 159.049 81.2504C159.429 82.1656 160.065 82.5045 160.959 82.267C161.123 82.225 161.309 82.1043 161.49 81.9238C162.03 81.3713 162.696 81.1166 163.491 81.1597C164.212 81.1986 164.594 81.218 164.637 81.218C165.781 81.1878 166.843 81.2245 167.823 81.3281ZM160.428 74.1728C159.828 74.1469 159.347 74.5354 158.984 75.3383C158.948 75.4218 158.931 75.5126 158.936 75.6033C158.941 75.6941 158.967 75.7823 159.011 75.861C159.056 75.9397 159.118 76.0066 159.194 76.0564C159.269 76.1062 159.354 76.1375 159.444 76.1478C161.775 76.4327 162.537 76.0463 161.729 74.9887C161.332 74.4663 160.898 74.1943 160.428 74.1728Z" fill="white"/>
<path d="M180.571 85.66C178.642 86.7867 176.669 87.0975 174.653 86.5925C173.146 86.2212 171.974 85.4118 171.137 84.1642C170.014 82.4849 170.06 80.8725 171.273 79.327C172.11 78.2651 173.425 77.4384 175.216 76.847C176.723 76.3505 178.279 76.0289 179.885 75.8821C179.993 75.8723 180.095 75.8391 180.18 75.7857C180.265 75.7323 180.331 75.6606 180.371 75.5778C180.621 75.0813 180.528 74.6799 180.092 74.3733C179.803 74.1661 179.456 74.1057 179.05 74.192C178.432 74.3172 177.873 74.5849 177.373 74.995C177.201 75.1372 177.001 75.2152 176.809 75.2151L172.328 75.254C172.193 75.2547 172.059 75.2231 171.938 75.1616C171.818 75.1001 171.713 75.0106 171.633 74.9002C171.553 74.7898 171.5 74.6617 171.477 74.5263C171.455 74.3909 171.465 74.252 171.506 74.1208C171.903 72.8257 172.695 71.8566 173.882 71.2133C176.675 69.7067 179.615 69.3808 182.702 70.2356C185.102 70.9047 186.581 72.2624 187.138 74.3086C187.293 74.8741 187.388 76.698 187.422 79.7803C187.444 81.8309 187.429 83.8296 187.377 85.7766C187.372 85.9913 187.283 86.1955 187.129 86.3456C186.976 86.4956 186.77 86.5796 186.555 86.5795C185.368 86.5795 184.262 86.5795 183.239 86.5795C183.205 86.5795 182.939 86.6011 182.443 86.6443C181.739 86.7047 181.247 86.4198 180.966 85.7895C180.95 85.7537 180.926 85.7216 180.896 85.6954C180.867 85.6691 180.833 85.6493 180.795 85.6371C180.758 85.6249 180.719 85.6207 180.681 85.6246C180.642 85.6285 180.605 85.6406 180.571 85.66ZM177.45 80.7128C176.608 81.5675 176.783 82.0661 177.975 82.2086C179.304 82.3683 180.142 81.7208 180.487 80.266C180.501 80.2071 180.501 80.1458 180.488 80.0869C180.474 80.0279 180.447 79.9729 180.409 79.9259C180.371 79.879 180.323 79.8415 180.268 79.8162C180.213 79.791 180.153 79.7787 180.092 79.7803C178.909 79.8149 178.029 80.1257 177.45 80.7128Z" fill="white"/>
<path d="M242.463 79.7182C242.461 80.6502 242.276 81.5727 241.918 82.4332C241.56 83.2936 241.036 84.0751 240.375 84.7329C239.715 85.3908 238.932 85.9122 238.07 86.2673C237.209 86.6225 236.285 86.8044 235.353 86.8028L232.051 86.797C231.119 86.7954 230.196 86.6102 229.336 86.2521C228.476 85.8939 227.694 85.3698 227.036 84.7096C226.378 84.0495 225.857 83.2662 225.502 82.4045C225.147 81.5428 224.965 80.6196 224.966 79.6876L224.971 76.9291C224.973 75.9971 225.158 75.0745 225.516 74.2141C225.874 73.3537 226.398 72.5722 227.059 71.9143C227.719 71.2565 228.502 70.7351 229.364 70.3799C230.225 70.0248 231.149 69.8428 232.081 69.8445L235.383 69.8502C236.315 69.8518 237.238 70.037 238.098 70.3952C238.958 70.7533 239.74 71.2775 240.398 71.9376C241.056 72.5978 241.577 73.3811 241.932 74.2428C242.287 75.1045 242.469 76.0277 242.468 76.9597L242.463 79.7182ZM233.697 82.1506C234.209 82.1515 234.701 81.7485 235.064 81.0302C235.427 80.3119 235.632 79.3372 235.634 78.3205C235.635 77.8171 235.586 77.3185 235.489 76.8533C235.393 76.388 235.252 75.9651 235.073 75.6089C234.895 75.2526 234.682 74.9698 234.449 74.7768C234.215 74.5837 233.964 74.4841 233.711 74.4837C233.199 74.4828 232.707 74.8859 232.344 75.6041C231.981 76.3224 231.776 77.2971 231.774 78.3138C231.774 78.8172 231.823 79.3158 231.919 79.7811C232.015 80.2463 232.156 80.6692 232.335 81.0254C232.513 81.3817 232.726 81.6645 232.959 81.8575C233.193 82.0506 233.444 82.1502 233.697 82.1506Z" fill="white"/>
<path d="M197.351 71.3367C199.074 70.1625 200.883 69.7308 202.778 70.0416C203.041 70.0833 203.282 70.2178 203.455 70.4208C203.628 70.6238 203.723 70.882 203.723 71.1489V74.8464C203.723 75.6364 203.289 76.0465 202.422 76.0767L198.452 76.2062C197.666 76.2365 197.265 76.6703 197.248 77.5078L197.099 85.5827C197.094 85.8498 196.99 86.1042 196.811 86.2908C196.631 86.4774 196.391 86.5812 196.14 86.5799L191.031 86.5475C190.833 86.5458 190.644 86.4645 190.504 86.3214C190.365 86.1783 190.287 85.9849 190.287 85.7834V70.8446C190.287 70.7471 190.305 70.6506 190.341 70.5606C190.377 70.4706 190.429 70.3889 190.496 70.3203C190.562 70.2517 190.641 70.1974 190.727 70.1607C190.813 70.124 190.906 70.1055 190.999 70.1064L195.998 70.1582C196.091 70.1605 196.184 70.1903 196.268 70.2448C196.352 70.2993 196.424 70.3766 196.477 70.469L196.924 71.2396C196.944 71.2753 196.972 71.3064 197.005 71.3309C197.038 71.3554 197.076 71.3728 197.116 71.3819C197.156 71.391 197.198 71.3917 197.239 71.3839C197.279 71.3762 197.317 71.3601 197.351 71.3367Z" fill="white"/>
<path d="M247.736 77.7341L243.578 71.6407C242.858 70.5831 243.13 70.0585 244.394 70.0672L249.173 70.0996C249.282 70.0995 249.388 70.121 249.482 70.1625C249.576 70.204 249.657 70.2644 249.717 70.3391L252.1 73.2013C252.126 73.2322 252.158 73.2577 252.193 73.2759C252.229 73.294 252.267 73.3044 252.306 73.3063C252.344 73.3082 252.382 73.3014 252.416 73.2866C252.449 73.2718 252.479 73.2493 252.502 73.2207L254.574 70.5334C254.646 70.439 254.729 70.3617 254.816 70.3077C254.902 70.2536 254.99 70.2245 255.072 70.2226L259.961 70.1125C261.248 70.0866 261.511 70.6133 260.751 71.6925L256.717 77.4233C256.598 77.5918 256.533 77.7917 256.532 77.9949C256.531 78.198 256.593 78.3944 256.711 78.5565L261.321 85.006C262.068 86.055 261.794 86.5795 260.499 86.5795H256.102C255.359 86.5795 254.777 86.2903 254.354 85.7118L252.489 83.1346C252.447 83.0767 252.392 83.0301 252.329 82.9989C252.265 82.9677 252.194 82.9531 252.124 82.9563C252.053 82.9595 251.985 82.9805 251.925 83.0174C251.866 83.0542 251.817 83.1057 251.783 83.167C251.127 84.3325 250.283 85.3859 249.251 86.327C249.097 86.4686 248.896 86.5472 248.688 86.5471L244.181 86.5795C242.713 86.5881 242.404 85.9794 243.255 84.7534L247.736 78.2651C247.791 78.1874 247.82 78.0947 247.82 77.9996C247.82 77.9045 247.791 77.8117 247.736 77.7341Z" fill="white"/>
<defs>
<linearGradient id="paint0_linear_1_12497" x1="35.3584" y1="-6.84821e-05" x2="709.035" y2="86.996" gradientUnits="userSpaceOnUse">
<stop stop-color="#1643C3"/>
<stop offset="1" stop-color="#369EFE"/>
</linearGradient>
</defs>
</svg>
