<svg width="327" height="146" viewBox="0 0 327 146" fill="none" xmlns="http://www.w3.org/2000/svg">
<rect width="326.348" height="145.583" transform="translate(0 0.0146484)" fill="url(#paint0_linear_1_12486)"/>
<path fill-rule="evenodd" clip-rule="evenodd" d="M65.2796 56.9497C68.7006 58.252 72.6161 62.24 73.8947 65.7245C75.3098 69.5817 75.1908 74.3773 73.5912 77.9712C72.9149 79.4897 71.6405 81.5454 70.7587 82.5395L69.1557 84.3467H71.9881H74.8201V86.5267V88.7067H69.0414H63.2626V85.6634V82.6206L64.8678 81.7796C71.4042 78.3553 72.7612 68.8754 67.4901 63.4604C63.1038 58.9548 55.2421 59.1039 51.22 63.7695C48.9312 66.4247 48.1483 68.7773 48.3739 72.3207C48.4822 74.0193 48.9008 76.0567 49.3041 76.8485C50.2526 78.7102 53.0547 81.4722 54.698 82.1654C55.9531 82.6947 55.9856 82.7845 55.9856 85.7075V88.7067H49.9928H44V86.5267V84.3467H47.0294H50.0587L48.3816 82.604C45.2914 79.3934 43.8009 75.2436 44.092 70.6621C44.5115 64.0664 48.4021 58.8824 54.6347 56.6148C57.1718 55.6918 62.4069 55.8566 65.2796 56.9497ZM99.3243 61.6706C101.783 62.608 104.576 65.1991 105.906 67.7789C107.066 70.0273 106.996 75.2588 105.773 77.6084C104.387 80.275 101.379 82.8696 98.7541 83.6635C95.899 84.5272 94.7509 84.5215 92.1257 83.6312C83.6231 80.7471 81.3446 69.8019 88.0035 63.8314C91.2717 60.9015 95.292 60.1342 99.3243 61.6706ZM114.201 72.3569V83.9107H112.061H109.921V72.3569V60.803H112.061H114.201V72.3569ZM275.793 62.0076C277.864 63.095 279.888 65.21 281.101 67.5544C281.768 68.8449 282 70.0853 282 72.3739C282 77.7484 279.034 82.0512 274.244 83.6269C271.489 84.5333 269.864 84.5342 267.201 83.6312C256.722 80.0766 256.568 65.343 266.969 61.3776C269.122 60.5571 273.646 60.8797 275.793 62.0076ZM229.19 62.4484C231.467 63.6518 234.196 66.8188 234.838 69.0027C236.441 74.4501 233.972 80.2305 229.023 82.618C227.403 83.3997 225.986 83.64 221.979 83.8126L216.964 84.0293L216.843 73.0667C216.776 67.0377 216.793 61.8869 216.88 61.6209C216.99 61.2883 218.659 61.1963 222.231 61.3257C226.46 61.4797 227.751 61.6876 229.19 62.4484ZM252.23 68.1059C253.825 71.8825 255.972 76.9937 257 79.4631L258.869 83.9539L256.477 83.8231L254.086 83.6927L253.143 81.2948L252.199 78.8968L247.3 78.7747L242.4 78.6531L241.375 81.2817L240.35 83.9107H238.059C235.612 83.9107 235.545 83.8676 236.189 82.7056C236.583 81.9954 243.996 64.3537 244.798 62.22C245.11 61.3885 245.483 61.239 247.248 61.239H249.33L252.23 68.1059ZM92.1967 66.1509C89.7298 67.5879 88.8142 69.0943 88.6267 72.0242C88.4358 75.002 89.3394 77.0577 91.4985 78.5593C94.4718 80.6264 98.1968 80.1978 100.502 77.5234C102.973 74.6572 103.097 70.8099 100.808 67.9821C98.4776 65.1023 95.1952 64.4047 92.1967 66.1509ZM221.216 72.3569V79.5508H223.592C227.335 79.5508 229.664 77.8687 230.654 74.4492C232.031 69.6934 228.23 65.1629 222.864 65.1629H221.216V72.3569ZM268.088 65.7807C266.245 66.6192 264.611 68.5855 264 70.7005C262.921 74.4326 265.178 78.3875 269.061 79.5726C272.373 80.5832 276.119 78.3322 277.277 74.6367C279.036 69.0202 273.243 63.4373 268.088 65.7807ZM121.338 68.5419C121.481 68.9618 122.13 70.5802 122.781 72.1389C123.432 73.6975 124.284 75.7576 124.674 76.7168L125.383 78.4608L127.545 73.1198L129.707 67.7789H131.799C133.205 67.7789 133.882 67.9581 133.861 68.3239C133.845 68.6239 131.765 73.5776 129.24 79.3328L124.649 89.7966L122.422 89.9283C121.197 90.0011 120.194 89.9763 120.194 89.8738C120.194 89.7714 120.861 88.1974 121.676 86.3758L123.158 83.0645L120.223 76.3471C116.161 67.0473 116.274 67.7789 118.895 67.7789C120.589 67.7789 121.136 67.9498 121.338 68.5419ZM140.584 68.4268C140.8 68.9997 140.933 68.9997 141.736 68.4268C143.063 67.4798 146.145 67.6032 147.604 68.6609L148.821 69.5434L150.238 68.6627C152.044 67.5417 155.72 67.4707 157.469 68.5227C159.642 69.8303 160.201 71.6902 160.358 78.1338L160.498 83.9107H158.324H156.151V78.776C156.151 72.8146 155.723 71.7029 153.426 71.7029C150.699 71.7029 150.374 72.3569 150.522 77.5317C150.696 83.6134 150.588 83.9107 148.203 83.9107H146.306V78.776C146.306 72.8936 145.864 71.7029 143.685 71.7029C140.877 71.7029 140.741 72.0063 140.741 78.258V83.9107H138.601H136.46V75.8448V67.7789H138.4C139.721 67.7789 140.418 67.9856 140.584 68.4268ZM168.565 68.483C168.565 69.1314 168.649 69.1314 169.62 68.483C170.992 67.5674 174.233 67.581 176.156 68.5105C178.503 69.645 180.122 72.5923 180.122 75.7297C180.122 80.0147 178.089 82.9424 174.412 83.9508C172.762 84.403 171.561 84.2316 169.1 83.1922C168.697 83.0222 168.565 83.841 168.565 86.4905V90.0146H166.424H164.284V78.8968V67.7789H166.424C168.109 67.7789 168.565 67.9289 168.565 68.483ZM187.827 73.5358C187.945 76.5825 188.24 79.2765 188.483 79.5229C189.45 80.5034 191.445 80.5182 192.65 79.5534C193.813 78.6212 193.82 78.5811 193.82 73.197V67.7789H195.746H197.673V75.8448V83.9107H195.746C194.374 83.9107 193.82 83.7337 193.82 83.2964C193.82 82.809 193.454 82.8617 192.052 83.5519C189.976 84.5739 188.216 84.3838 186.056 82.904C184.051 81.5306 183.599 79.7871 183.571 73.3139L183.547 67.7309L185.58 67.8639L187.613 67.9969L187.827 73.5358ZM211.391 68.9535L212.762 70.128L211.585 71.1592C210.826 71.8241 210.16 72.0787 209.712 71.8759C209.329 71.7033 208.278 71.4731 207.375 71.365C205.851 71.1823 205.744 71.242 205.877 72.1986C205.985 72.9794 206.485 73.3906 207.946 73.8981C212.081 75.3343 213.049 76.2935 213.069 78.9722C213.098 82.8356 209.278 85.0565 204.855 83.7468C203.577 83.3683 202.164 82.645 201.715 82.1393C200.904 81.2267 200.909 81.2106 202.347 80.0155C203.771 78.8318 203.809 78.8253 204.61 79.641C205.76 80.8125 209.016 80.598 209.016 79.3511C209.016 78.7472 208.515 78.3182 207.304 77.887C206.362 77.5513 205.039 77.0682 204.364 76.8136C202.979 76.2908 201.529 74.1697 201.527 72.6621C201.524 71.1513 202.676 69.1885 203.992 68.4612C204.636 68.105 206.256 67.8059 207.592 67.7963C209.619 67.782 210.247 67.9729 211.391 68.9535ZM245.675 71.0388C244.935 72.8321 244.331 74.4017 244.331 74.5268C244.331 74.6524 245.696 74.7548 247.363 74.7548C249.031 74.7548 250.331 74.5953 250.252 74.4008C248.408 69.8229 247.491 67.7815 247.28 67.7802C247.136 67.7793 246.413 69.246 245.675 71.0388ZM169.291 72.4802C168.777 73.0579 168.565 74.0659 168.565 75.9207C168.565 79.1161 169.432 80.1851 172.023 80.1851C175.45 80.1851 177.281 76.0593 175.149 73.1412C174.414 72.1362 173.883 71.8982 172.137 71.7922C170.499 71.6924 169.852 71.8489 169.291 72.4802Z" fill="white"/>
<defs>
<linearGradient id="paint0_linear_1_12486" x1="35.3584" y1="-6.84821e-05" x2="709.035" y2="86.996" gradientUnits="userSpaceOnUse">
<stop stop-color="#1643C3"/>
<stop offset="1" stop-color="#369EFE"/>
</linearGradient>
</defs>
</svg>
