<svg width="108" height="107" viewBox="0 0 108 107" fill="none" xmlns="http://www.w3.org/2000/svg">
<g filter="url(#filter0_d_1_14151)">
<path fill-rule="evenodd" clip-rule="evenodd" d="M-0.000488281 0H61.4321V17.194H18.8849V28.9091H14.6281V12.9031H57.1753V4.29088H4.25632V90.7091H57.1753V82.4411H14.6281V37.5046H61.4321V54.1824H26.6205V49.8915H57.1753V41.7955H18.8849V78.1502H61.4321V95H-0.000488281V0Z" fill="#1643C3"/>
<path fill-rule="evenodd" clip-rule="evenodd" d="M69.9018 37.6316H107V48.0147H81.3062V55.0892H78.7356V45.4236H104.429V40.2228H72.4723V92.4088H104.429V87.416H78.7356V60.2798H107V70.3512H85.9775V67.76H104.429V62.871H81.3062V84.8248H107V95H69.9018V37.6316Z" fill="#1643C3"/>
</g>
<defs>
<filter id="filter0_d_1_14151" x="-0.000488281" y="0" width="108" height="96" filterUnits="userSpaceOnUse" color-interpolation-filters="sRGB">
<feFlood flood-opacity="0" result="BackgroundImageFix"/>
<feColorMatrix in="SourceAlpha" type="matrix" values="0 0 0 0 0 0 0 0 0 0 0 0 0 0 0 0 0 0 127 0" result="hardAlpha"/>
<feOffset dx="1" dy="1"/>
<feComposite in2="hardAlpha" operator="out"/>
<feColorMatrix type="matrix" values="0 0 0 0 0 0 0 0 0 0 0 0 0 0 0 0 0 0 0.5 0"/>
<feBlend mode="normal" in2="BackgroundImageFix" result="effect1_dropShadow_1_14151"/>
<feBlend mode="normal" in="SourceGraphic" in2="effect1_dropShadow_1_14151" result="shape"/>
</filter>
</defs>
</svg>
