<svg width="327" height="146" viewBox="0 0 327 146" fill="none" xmlns="http://www.w3.org/2000/svg">
<rect width="326.348" height="145.583" transform="translate(0.000244141 0.0592957)" fill="url(#paint0_linear_1_12495)"/>
<path fill-rule="evenodd" clip-rule="evenodd" d="M73.526 53.8784C68.8286 55.2319 66.8377 57.1377 68.0968 59.0753C71.0766 63.6607 88.164 64.4797 94.8071 60.3555C95.9485 59.6466 96.2909 59.1153 96.2909 58.0528C96.2909 55.0008 90.4084 52.972 81.6816 53.0153C78.0425 53.0333 75.5398 53.2984 73.526 53.8784ZM125.509 73.0403V86.1996L132.928 86.045C139.397 85.9101 140.55 85.7701 141.929 84.9535C144.077 83.6806 145.316 81.4047 145.316 78.7301C145.316 76.1586 144.346 74.4623 142.116 73.1355L140.528 72.1909L141.892 71.3545C143.824 70.17 144.362 68.8866 144.127 66.026C143.981 64.2468 143.615 63.2193 142.82 62.3497C140.89 60.2395 139.339 59.8809 132.144 59.8809H125.509V73.0403ZM167.511 73.0007V86.1205H170.022H172.533V73.0007V59.8809H170.022H167.511V73.0007ZM68.8405 65.0952C61.3893 67.8089 60.662 71.2891 66.9481 74.1515C71.9651 76.4367 84.6587 77.2533 91.81 75.7521C103.137 73.3735 104.384 67.9512 94.3141 64.8668C91.3694 63.965 90.8713 63.9379 87.3623 64.4884C83.8447 65.0399 81.2301 64.9902 74.1487 64.2366C72.4326 64.0539 71.115 64.267 68.8405 65.0952ZM138.191 64.7407C138.936 65.2669 139.206 65.921 139.206 67.2013C139.206 69.8376 138.033 70.6478 133.915 70.8573L130.531 71.0299V67.5267V64.024H133.854C136.122 64.024 137.498 64.2514 138.191 64.7407ZM153.375 66.3837C151.223 67.0364 149.372 68.4341 148.558 70.0218C148.185 70.7491 147.88 71.4295 147.88 71.534C147.88 71.639 148.832 71.8563 149.996 72.0174C151.866 72.2756 152.236 72.1753 153.17 71.1588C153.946 70.315 154.697 70.0084 155.989 70.0084C158.354 70.0084 159.412 70.8453 159.219 72.5629C159.068 73.891 158.981 73.9342 155.263 74.5037C149.248 75.4248 147.271 76.9725 147.271 80.7621C147.271 84.3435 149.793 86.5808 153.83 86.5808C155.86 86.5808 157.125 86.0689 158.723 84.6018L159.75 83.6581V84.8895C159.75 86.0597 159.862 86.1205 162.033 86.1205H164.315V78.7025C164.315 71.9506 164.227 71.1257 163.327 69.5122C162.784 68.5376 161.703 67.4356 160.925 67.0631C158.99 66.1374 155.286 65.8036 153.375 66.3837ZM181.892 66.2727C179.697 66.8486 177.749 68.0308 176.938 69.2783C175.745 71.1142 175.988 71.7002 178.083 72.0381C179.73 72.3037 180.145 72.1859 181.22 71.1469C182.239 70.1626 182.815 69.9753 184.455 70.0941C186.123 70.2151 186.551 70.4504 187.061 71.5285C187.914 73.3307 187.222 73.9817 184.047 74.3614C179.877 74.86 177.958 75.5155 176.57 76.9154C175.494 78 175.272 78.6127 175.272 80.4987C175.272 84.1935 177.819 86.5826 181.755 86.579C183.636 86.5776 186.476 85.2987 187.25 84.106C187.436 83.8183 187.588 84.1507 187.592 84.8545C187.598 86.0657 187.698 86.1205 189.882 86.1205H192.164L192.163 78.4097C192.161 71.6776 192.052 70.519 191.303 69.2811C189.844 66.8684 185.236 65.3953 181.892 66.2727ZM203.578 66.5931C202.699 66.9734 201.625 67.7422 201.191 68.3015L200.402 69.3179L200.392 67.8218C200.382 66.3349 200.368 66.3257 198.099 66.3257H195.817V76.2231V86.1205H198.099H200.382V79.8828C200.382 75.1532 200.553 73.3123 201.089 72.2673C201.916 70.6543 203.666 69.8538 205.483 70.2561C207.836 70.7772 208.143 71.8217 208.143 79.318V86.1205H210.654H213.165V78.9004C213.165 70.2096 212.593 68.4009 209.341 66.8136C207.058 65.6992 205.758 65.6494 203.578 66.5931ZM222.068 66.421C218.068 67.8305 215.789 71.3775 215.792 76.1895C215.795 82.4547 219.515 86.5449 225.233 86.5707C229.328 86.5891 232.576 84.1948 233.495 80.4813C233.806 79.2236 233.793 79.2153 231.465 79.2153C229.401 79.2153 229.071 79.3493 228.698 80.3381C227.78 82.7747 224.351 83.2 222.3 81.1317C218.897 77.6994 220.805 70.0084 225.059 70.0084C226.958 70.0084 227.736 70.4389 228.488 71.9055C229.098 73.0964 229.398 73.2308 231.439 73.2308C233.901 73.2308 234.026 73.0444 233.087 70.7777C231.519 66.9946 226.298 64.9299 222.068 66.421ZM241.891 66.4946C237.481 68.0842 235.527 71.209 235.546 76.6369C235.557 79.7553 236.584 82.5187 238.335 84.1419C241.905 87.4518 248.401 87.3873 251.752 84.0093C253.958 81.7849 253.859 80.7888 251.4 80.4504C249.756 80.2239 249.307 80.3487 248.452 81.2698C246.22 83.6747 242.016 82.9455 240.769 79.9371C240.402 79.05 240.101 78.2196 240.101 78.0916C240.101 77.9636 243.131 77.8016 246.835 77.7316L253.569 77.6041L253.718 76.0214C254.122 71.7485 251.209 67.3974 247.276 66.3989C244.677 65.7387 243.953 65.7516 241.891 66.4946ZM263.539 66.7446C262.745 67.2395 261.878 68.0207 261.612 68.481C261.201 69.1941 261.128 69.097 261.116 67.8218C261.102 66.3353 261.087 66.3257 258.819 66.3257H256.537V76.2231V86.1205H259.048H261.558V79.4248C261.558 72.9293 261.592 72.695 262.679 71.5989C263.544 70.7266 264.279 70.4688 265.9 70.4688H268L267.861 68.2821C267.73 66.2235 267.641 66.0881 266.352 65.9703C265.592 65.9008 264.341 66.2451 263.539 66.7446ZM247.897 71.354C250.285 73.7616 249.838 74.1515 244.69 74.1515H240.149L240.628 72.7631C241.678 69.7272 245.541 68.9782 247.897 71.354ZM138.677 75.3489C139.983 76.2719 140.663 78.0129 140.294 79.4934C139.868 81.2081 137.912 81.9774 133.978 81.9774H130.531V78.2946V74.6119H134.082C136.599 74.6119 137.937 74.8264 138.677 75.3489ZM159.094 80.4136C158.607 82.3719 154.96 83.5485 152.872 82.4216C151.797 81.8416 151.682 79.5845 152.685 78.7448C153.069 78.424 154.661 77.9291 156.224 77.6446C159.04 77.1322 159.067 77.1373 159.215 78.2269C159.298 78.8318 159.243 79.8156 159.094 80.4136ZM187.459 78.8691C187.128 81.3568 185.483 82.8981 183.158 82.8981C182.25 82.8981 181.132 82.5551 180.673 82.1362C179.69 81.2399 179.579 79.544 180.455 78.8111C180.951 78.3964 185.504 77.1682 187.317 76.9596C187.538 76.9343 187.602 77.7938 187.459 78.8691ZM67.6238 78.0732C63.5757 79.2001 60.7424 80.6341 59.3079 82.2817C57.7575 84.0618 57.658 84.6929 58.6291 86.5859C59.9119 89.0874 65.5173 91.4936 72.6325 92.5975C78.1284 93.4501 91.4963 92.923 96.0056 91.6754C102.59 89.8543 105.878 87.5162 105.878 84.6566C105.878 82.2204 102.017 79.5606 96.3187 78.0718C93.984 77.4619 93.0052 77.4158 91.1014 77.8274C85.7918 78.9759 78.7132 78.9078 71.4095 77.6386C70.6562 77.5079 68.9528 77.7035 67.6238 78.0732Z" fill="white"/>
<defs>
<linearGradient id="paint0_linear_1_12495" x1="35.3584" y1="-6.84821e-05" x2="709.035" y2="86.996" gradientUnits="userSpaceOnUse">
<stop stop-color="#1643C3"/>
<stop offset="1" stop-color="#369EFE"/>
</linearGradient>
</defs>
</svg>
