<svg width="8" height="5" viewBox="0 0 8 5" fill="none" xmlns="http://www.w3.org/2000/svg">
<path d="M4 3.91707L4.36433 3.52945L7.16254 0.552361L6.79821 0.209923L7.16254 0.552361C7.19355 0.519361 7.2261 0.5 7.30045 0.5C7.3748 0.5 7.40734 0.51936 7.43836 0.552361L7.80095 0.211559L7.43836 0.552361C7.47155 0.587676 7.5 0.637895 7.5 0.744273C7.5 0.850651 7.47155 0.90087 7.43836 0.936185L7.80269 1.27862L7.43836 0.936185L4.13906 4.44641C4.13891 4.44657 4.13876 4.44673 4.13861 4.44689C4.11015 4.47684 4.0934 4.48376 4.09022 4.48497C4.09022 4.48497 4.09022 4.48497 4.09022 4.48497L4.26906 4.9519C4.18535 4.98396 4.09566 4.99999 4 4.99999V3.91707ZM4 3.91707L3.63567 3.52945M4 3.91707L3.63567 3.52945M3.63567 3.52945L0.837464 0.552361C0.806446 0.51936 0.773904 0.5 0.699551 0.5C0.625199 0.5 0.592657 0.51936 0.561639 0.552361C0.528447 0.587675 0.5 0.637893 0.5 0.744273C0.5 0.850653 0.528447 0.900871 0.561639 0.936185L3.86209 4.44763C3.89086 4.47824 3.90744 4.48484 3.90978 4.48574L3.73094 4.95266L3.63567 3.52945Z" fill="white" stroke="white"/>
</svg>
