<svg width="328" height="146" viewBox="0 0 328 146" fill="none" xmlns="http://www.w3.org/2000/svg">
<rect width="326.348" height="145.583" transform="translate(0.825684 0.0145721)" fill="url(#paint0_linear_1_12488)"/>
<path fill-rule="evenodd" clip-rule="evenodd" d="M69.6444 49.6039C69.3605 49.6556 68.6195 49.7832 67.9977 49.8873C61.0575 51.0486 54.7892 55.7327 51.54 62.1854C47.7258 69.76 48.2345 78.7268 52.8768 85.7499C56.4854 91.2093 61.785 94.6606 68.4398 95.8851C70.1967 96.2084 73.952 96.1832 75.7248 95.8361C79.9803 95.003 83.1779 93.5302 86.3479 90.9433C90.7841 87.3231 93.6429 82.2821 94.6136 76.3682C94.8956 74.6501 94.8953 71.0686 94.6131 69.3266C93.5378 62.689 90.0207 57.0988 84.6049 53.4191C82.0762 51.7011 78.558 50.2936 75.6675 49.8435C75.2258 49.7747 74.5246 49.6653 74.1093 49.6002C73.2351 49.4635 70.4014 49.4657 69.6444 49.6039ZM75.3099 61.7438C77.1824 62.4334 78.3933 63.7583 78.9784 65.7578C79.314 66.9047 79.035 69.1125 78.4468 69.9645C78.2928 70.1875 78.2735 70.1833 77.6649 69.7971C77.3218 69.5794 76.6802 69.2837 76.2395 69.1401C75.7987 68.9965 75.423 68.8684 75.4046 68.8556C75.3864 68.8426 75.4764 68.6514 75.6048 68.4306C76.1706 67.4577 75.9686 66.1324 75.1384 65.3714C74.8864 65.1405 74.5506 64.9016 74.3921 64.8403C73.9445 64.6677 72.8757 64.7092 72.4466 64.9158C71.9405 65.1594 71.2946 65.8918 71.1558 66.3795C69.6376 71.71 66.3217 83.5091 66.2634 83.788L66.1845 84.1663H64.5302C63.6202 84.1663 62.8757 84.1216 62.8757 84.0669C62.8757 84.0122 63.0767 83.2659 63.3225 82.4083C63.5682 81.5508 64.4479 78.4137 65.2775 75.437C66.1069 72.4604 66.8565 69.7892 66.9433 69.5012C67.03 69.2131 67.3429 68.087 67.6386 66.9988C67.9343 65.9105 68.3125 64.7583 68.4791 64.4382C68.9579 63.518 70.0246 62.5039 71.0211 62.0216C72.0393 61.5286 72.1414 61.5067 73.5112 61.4861C74.3596 61.4734 74.7131 61.524 75.3099 61.7438ZM75.9197 70.0242C78.1533 70.6746 80.221 72.8762 80.7847 75.2043C80.9816 76.0173 80.9784 77.8633 80.7788 78.696C80.1855 81.1699 78.1748 83.2644 75.7072 83.9785C74.8381 84.2301 72.8256 84.2301 71.9566 83.9785C71.0219 83.7081 69.8789 83.0726 69.1945 82.4428L68.6008 81.8967L68.8351 81.0238C68.9639 80.5437 69.2094 79.6109 69.3807 78.951L69.6921 77.7512L70.0638 78.4993C71.1699 80.7252 73.5258 81.5965 75.5981 80.5459C76.4094 80.1347 77.0174 79.4867 77.4302 78.5935C77.6827 78.0471 77.7324 77.7766 77.7319 76.9501C77.7311 75.7435 77.4198 74.9636 76.6114 74.1434C75.8479 73.3689 75.19 73.0876 73.9466 73.004L72.9141 72.9347L72.8822 71.3419L72.8503 69.7492L73.2264 69.7124C73.823 69.6542 75.1942 69.8129 75.9197 70.0242Z" fill="white"/>
<path d="M113.802 73.0432C114.844 73.2292 115.728 73.778 116.454 74.6896C117.179 75.6012 117.542 76.6338 117.542 77.7872C117.542 78.7732 117.281 79.6662 116.76 80.4662C116.258 81.2476 115.523 81.8708 114.556 82.3359C113.589 82.7824 112.463 83.0057 111.179 83.0057H103.421V63.6109H110.816C112.137 63.6109 113.272 63.8342 114.221 64.2807C115.17 64.7272 115.886 65.3318 116.37 66.0946C116.854 66.8387 117.095 67.6759 117.095 68.6061C117.095 69.7224 116.798 70.6526 116.202 71.3967C115.607 72.1409 114.807 72.6897 113.802 73.0432ZM106.603 71.7595H110.537C111.579 71.7595 112.389 71.5269 112.965 71.0618C113.561 70.5781 113.858 69.8898 113.858 68.9968C113.858 68.1224 113.561 67.4434 112.965 66.9597C112.389 66.4573 111.579 66.2062 110.537 66.2062H106.603V71.7595ZM110.9 80.4104C111.979 80.4104 112.826 80.1499 113.44 79.629C114.054 79.1081 114.361 78.3825 114.361 77.4523C114.361 76.5035 114.035 75.7501 113.384 75.1919C112.733 74.6338 111.868 74.3548 110.789 74.3548H106.603V80.4104H110.9Z" fill="white"/>
<path d="M126.413 83.2568C124.962 83.2568 123.65 82.9312 122.478 82.2801C121.306 81.6103 120.385 80.6801 119.715 79.4895C119.046 78.2802 118.711 76.8849 118.711 75.3036C118.711 73.7408 119.055 72.3548 119.743 71.1456C120.432 69.9363 121.371 69.0061 122.562 68.355C123.752 67.7038 125.083 67.3782 126.552 67.3782C128.022 67.3782 129.352 67.7038 130.543 68.355C131.733 69.0061 132.673 69.9363 133.361 71.1456C134.05 72.3548 134.394 73.7408 134.394 75.3036C134.394 76.8663 134.04 78.2523 133.333 79.4616C132.626 80.6708 131.659 81.6103 130.431 82.2801C129.222 82.9312 127.882 83.2568 126.413 83.2568ZM126.413 80.4941C127.231 80.4941 127.994 80.2988 128.701 79.9081C129.427 79.5174 130.013 78.9314 130.459 78.15C130.906 77.3686 131.129 76.4198 131.129 75.3036C131.129 74.1873 130.915 73.2478 130.487 72.4851C130.059 71.7037 129.492 71.1177 128.785 70.727C128.078 70.3363 127.315 70.1409 126.496 70.1409C125.678 70.1409 124.915 70.3363 124.208 70.727C123.52 71.1177 122.971 71.7037 122.562 72.4851C122.152 73.2478 121.948 74.1873 121.948 75.3036C121.948 76.9593 122.366 78.243 123.204 79.1546C124.059 80.0476 125.129 80.4941 126.413 80.4941Z" fill="white"/>
<path d="M144.041 67.3782C145.25 67.3782 146.329 67.6294 147.278 68.1317C148.245 68.634 148.999 69.3782 149.538 70.3642C150.078 71.3502 150.348 72.5409 150.348 73.9362V83.0057H147.194V74.4106C147.194 73.0339 146.85 71.9827 146.162 71.2572C145.473 70.513 144.534 70.1409 143.343 70.1409C142.153 70.1409 141.204 70.513 140.497 71.2572C139.808 71.9827 139.464 73.0339 139.464 74.4106V83.0057H136.283V67.6294H139.464V69.3875C139.985 68.7549 140.646 68.2619 141.446 67.9085C142.264 67.555 143.129 67.3782 144.041 67.3782Z" fill="white"/>
<path d="M152.089 75.2478C152.089 73.7036 152.406 72.3362 153.038 71.1456C153.689 69.9549 154.564 69.034 155.661 68.3829C156.778 67.7131 158.015 67.3782 159.373 67.3782C160.377 67.3782 161.364 67.6015 162.331 68.048C163.317 68.4759 164.098 69.0526 164.675 69.7782V62.3551H167.884V83.0057H164.675V80.6894C164.154 81.4336 163.429 82.0475 162.498 82.5312C161.587 83.015 160.536 83.2568 159.345 83.2568C158.005 83.2568 156.778 82.9219 155.661 82.2522C154.564 81.5638 153.689 80.615 153.038 79.4058C152.406 78.1779 152.089 76.7919 152.089 75.2478ZM164.675 75.3036C164.675 74.2431 164.452 73.3222 164.005 72.5409C163.577 71.7595 163.01 71.1642 162.303 70.7549C161.596 70.3456 160.833 70.1409 160.015 70.1409C159.196 70.1409 158.433 70.3456 157.726 70.7549C157.019 71.1456 156.443 71.7316 155.996 72.513C155.568 73.2757 155.354 74.1873 155.354 75.2478C155.354 76.3082 155.568 77.2384 155.996 78.0384C156.443 78.8383 157.019 79.4523 157.726 79.8802C158.452 80.2895 159.215 80.4941 160.015 80.4941C160.833 80.4941 161.596 80.2895 162.303 79.8802C163.01 79.4709 163.577 78.8756 164.005 78.0942C164.452 77.2942 164.675 76.364 164.675 75.3036Z" fill="white"/>
<path d="M190.363 69.3875C190.363 70.3735 190.13 71.3037 189.665 72.1781C189.2 73.0525 188.456 73.7687 187.432 74.3269C186.409 74.8664 185.098 75.1361 183.498 75.1361H179.982V83.0057H176.8V63.6109H183.498C184.986 63.6109 186.242 63.8714 187.265 64.3923C188.307 64.8946 189.079 65.583 189.581 66.4573C190.102 67.3317 190.363 68.3084 190.363 69.3875ZM183.498 72.5409C184.707 72.5409 185.609 72.2711 186.205 71.7316C186.8 71.1735 187.098 70.3921 187.098 69.3875C187.098 67.2666 185.898 66.2062 183.498 66.2062H179.982V72.5409H183.498Z" fill="white"/>
<path d="M195.322 69.8619C195.787 69.0805 196.401 68.4759 197.164 68.048C197.945 67.6015 198.866 67.3782 199.927 67.3782V70.6712H199.117C197.871 70.6712 196.922 70.9874 196.271 71.62C195.639 72.2525 195.322 73.3501 195.322 74.9129V83.0057H192.141V67.6294H195.322V69.8619Z" fill="white"/>
<path d="M208.265 83.2568C206.814 83.2568 205.502 82.9312 204.33 82.2801C203.158 81.6103 202.237 80.6801 201.567 79.4895C200.898 78.2802 200.563 76.8849 200.563 75.3036C200.563 73.7408 200.907 72.3548 201.595 71.1456C202.284 69.9363 203.223 69.0061 204.414 68.355C205.604 67.7038 206.935 67.3782 208.404 67.3782C209.874 67.3782 211.204 67.7038 212.395 68.355C213.586 69.0061 214.525 69.9363 215.213 71.1456C215.902 72.3548 216.246 73.7408 216.246 75.3036C216.246 76.8663 215.892 78.2523 215.185 79.4616C214.479 80.6708 213.511 81.6103 212.283 82.2801C211.074 82.9312 209.734 83.2568 208.265 83.2568ZM208.265 80.4941C209.083 80.4941 209.846 80.2988 210.553 79.9081C211.279 79.5174 211.865 78.9314 212.311 78.15C212.758 77.3686 212.981 76.4198 212.981 75.3036C212.981 74.1873 212.767 73.2478 212.339 72.4851C211.911 71.7037 211.344 71.1177 210.637 70.727C209.93 70.3363 209.167 70.1409 208.348 70.1409C207.53 70.1409 206.767 70.3363 206.06 70.727C205.372 71.1177 204.823 71.7037 204.414 72.4851C204.004 73.2478 203.8 74.1873 203.8 75.3036C203.8 76.9593 204.218 78.243 205.056 79.1546C205.911 80.0476 206.981 80.4941 208.265 80.4941Z" fill="white"/>
<path d="M221.847 70.2247V78.736C221.847 79.3127 221.977 79.7313 222.237 79.9918C222.516 80.2336 222.981 80.3546 223.633 80.3546H225.586V83.0057H223.074C221.642 83.0057 220.544 82.6708 219.781 82.001C219.019 81.3313 218.637 80.243 218.637 78.736V70.2247H216.823V67.6294H218.637V63.8063H221.847V67.6294H225.586V70.2247H221.847Z" fill="white"/>
<path d="M233.932 83.2568C232.481 83.2568 231.169 82.9312 229.997 82.2801C228.825 81.6103 227.904 80.6801 227.234 79.4895C226.565 78.2802 226.23 76.8849 226.23 75.3036C226.23 73.7408 226.574 72.3548 227.262 71.1456C227.951 69.9363 228.89 69.0061 230.081 68.355C231.271 67.7038 232.602 67.3782 234.071 67.3782C235.541 67.3782 236.871 67.7038 238.062 68.355C239.253 69.0061 240.192 69.9363 240.88 71.1456C241.569 72.3548 241.913 73.7408 241.913 75.3036C241.913 76.8663 241.559 78.2523 240.853 79.4616C240.146 80.6708 239.178 81.6103 237.95 82.2801C236.741 82.9312 235.402 83.2568 233.932 83.2568ZM233.932 80.4941C234.75 80.4941 235.513 80.2988 236.22 79.9081C236.946 79.5174 237.532 78.9314 237.978 78.15C238.425 77.3686 238.648 76.4198 238.648 75.3036C238.648 74.1873 238.434 73.2478 238.006 72.4851C237.578 71.7037 237.011 71.1177 236.304 70.727C235.597 70.3363 234.834 70.1409 234.016 70.1409C233.197 70.1409 232.434 70.3363 231.727 70.727C231.039 71.1177 230.49 71.7037 230.081 72.4851C229.671 73.2478 229.467 74.1873 229.467 75.3036C229.467 76.9593 229.885 78.243 230.723 79.1546C231.578 80.0476 232.648 80.4941 233.932 80.4941Z" fill="white"/>
<path d="M242.742 75.3036C242.742 73.7222 243.058 72.3362 243.69 71.1456C244.342 69.9363 245.235 69.0061 246.369 68.355C247.504 67.7038 248.807 67.3782 250.276 67.3782C252.137 67.3782 253.672 67.8247 254.881 68.7177C256.109 69.5921 256.937 70.8479 257.364 72.4851H253.932C253.653 71.7223 253.206 71.127 252.592 70.6991C251.979 70.2712 251.206 70.0572 250.276 70.0572C248.974 70.0572 247.932 70.5223 247.151 71.4525C246.388 72.3641 246.007 73.6478 246.007 75.3036C246.007 76.9593 246.388 78.2523 247.151 79.1825C247.932 80.1127 248.974 80.5778 250.276 80.5778C252.118 80.5778 253.337 79.7685 253.932 78.15H257.364C256.918 79.7127 256.081 80.9592 254.853 81.8894C253.625 82.801 252.099 83.2568 250.276 83.2568C248.807 83.2568 247.504 82.9312 246.369 82.2801C245.235 81.6103 244.342 80.6801 243.69 79.4895C243.058 78.2802 242.742 76.8849 242.742 75.3036Z" fill="white"/>
<path d="M265.949 83.2568C264.498 83.2568 263.186 82.9312 262.014 82.2801C260.842 81.6103 259.921 80.6801 259.251 79.4895C258.581 78.2802 258.247 76.8849 258.247 75.3036C258.247 73.7408 258.591 72.3548 259.279 71.1456C259.967 69.9363 260.907 69.0061 262.098 68.355C263.288 67.7038 264.618 67.3782 266.088 67.3782C267.558 67.3782 268.888 67.7038 270.079 68.355C271.269 69.0061 272.209 69.9363 272.897 71.1456C273.586 72.3548 273.93 73.7408 273.93 75.3036C273.93 76.8663 273.576 78.2523 272.869 79.4616C272.162 80.6708 271.195 81.6103 269.967 82.2801C268.758 82.9312 267.418 83.2568 265.949 83.2568ZM265.949 80.4941C266.767 80.4941 267.53 80.2988 268.237 79.9081C268.962 79.5174 269.549 78.9314 269.995 78.15C270.442 77.3686 270.665 76.4198 270.665 75.3036C270.665 74.1873 270.451 73.2478 270.023 72.4851C269.595 71.7037 269.028 71.1177 268.321 70.727C267.614 70.3363 266.851 70.1409 266.032 70.1409C265.214 70.1409 264.451 70.3363 263.744 70.727C263.056 71.1177 262.507 71.7037 262.098 72.4851C261.688 73.2478 261.484 74.1873 261.484 75.3036C261.484 76.9593 261.902 78.243 262.739 79.1546C263.595 80.0476 264.665 80.4941 265.949 80.4941Z" fill="white"/>
<path d="M279 62.3551V83.0057H275.819V62.3551H279Z" fill="white"/>
<defs>
<linearGradient id="paint0_linear_1_12488" x1="35.3584" y1="-6.84821e-05" x2="709.035" y2="86.996" gradientUnits="userSpaceOnUse">
<stop stop-color="#1643C3"/>
<stop offset="1" stop-color="#369EFE"/>
</linearGradient>
</defs>
</svg>
