<svg width="327" height="146" viewBox="0 0 327 146" fill="none" xmlns="http://www.w3.org/2000/svg">
<rect width="326.348" height="145.583" transform="translate(0.651123 0.0592957)" fill="url(#paint0_linear_1_12527)"/>
<path fill-rule="evenodd" clip-rule="evenodd" d="M65.052 51.1096C65.12 51.2105 65.7168 51.9808 66.3782 52.8214C68.8754 55.9951 71.2235 59.1261 74.1264 63.1534C75.1444 64.5656 76.4784 66.4003 77.0908 67.2305C78.3349 68.9167 78.6257 69.3441 78.6267 69.4871C78.6271 69.541 78.426 69.6702 78.18 69.7742C77.6754 69.9876 77.1059 69.9356 76.6525 69.6351C76.3082 69.4068 75.0291 67.5192 72.3432 63.2756C70.5826 60.494 70.0484 59.6878 70.0484 59.8127C70.0484 59.8429 70.8418 61.3221 71.8114 63.0999C74.1088 67.3123 75.4857 69.9757 75.4857 70.2074C75.4857 70.3096 75.2916 70.6507 75.0543 70.9651C74.434 71.7872 74.2036 72.4027 73.9825 73.8275C73.6367 76.0571 73.2861 76.7942 71.3246 79.4154C69.791 81.4648 69.5651 81.99 69.5651 83.5044C69.5651 84.8729 69.8731 85.8422 70.8577 87.5733C71.251 88.2647 71.6343 88.9769 71.7096 89.1561L71.8462 89.482L72.6692 89.2931C74.3971 88.8964 75.964 88.1458 76.8043 87.3123C77.5252 86.5974 77.6935 86.1787 77.6406 85.2326C77.5825 84.1902 77.3562 83.8678 75.9199 82.7801C75.0958 82.156 74.7247 81.7836 74.4873 81.3422C73.8712 80.1967 73.9209 79.5592 74.7708 77.701C75.3781 76.3733 75.5886 75.6295 75.7385 74.2809C75.9495 72.3832 76.2003 72.0922 77.8958 71.7766C79.6324 71.4535 80.682 70.4285 80.6811 69.0568C80.6807 68.5489 80.6078 68.4509 78.2504 65.7822C76.9138 64.2691 75.5681 62.7517 75.2603 62.4102C74.9523 62.0688 74.2882 61.326 73.7843 60.7595C66.2779 52.3205 64.6733 50.5473 65.052 51.1096ZM79.3611 60.6413C79.2913 60.6849 79.5734 60.7902 79.988 60.8752C82.0792 61.3036 83.668 62.5606 86.0698 65.6868C87.8475 68.0005 88.7449 68.9077 89.8245 69.4817C91.2568 70.2434 92.0138 70.3927 96.208 70.7413C98.0035 70.8904 99.0796 71.3956 99.7346 72.3972C99.9079 72.6621 100.073 72.8551 100.102 72.8259C100.219 72.7073 99.7352 71.1681 99.329 70.3673C98.8856 69.4937 97.8597 67.9831 97.7095 67.9831C97.6637 67.9831 97.5625 68.239 97.4847 68.5517C97.203 69.6843 96.6725 70.4285 96.147 70.4285C95.6183 70.4285 95.4628 69.9767 95.7406 69.2478C95.992 68.5883 96.0322 66.9383 95.8105 66.3812C95.6443 65.9633 93.5558 64.896 92.2207 64.5468C91.0758 64.2472 88.2571 64.1066 87.1458 64.2935L86.4208 64.4156L85.3311 63.3225C84.1403 62.1281 83.8652 61.914 82.8231 61.3708C81.7999 60.8374 79.7411 60.4036 79.3611 60.6413ZM96.5268 61.7128C96.3429 62.1703 96.1476 63.2633 96.1476 63.8353C96.1476 64.0912 96.1004 64.3301 96.0426 64.3662C95.9849 64.4022 95.5092 64.2745 94.9854 64.0822C93.2968 63.4622 93.0655 63.5017 94.3352 64.1931C95.4687 64.8104 96.0535 65.262 96.2894 65.7023C96.4727 66.0445 96.6128 67.9564 96.5104 68.7167C96.4605 69.0866 96.4368 69.4089 96.4578 69.433C96.5905 69.5852 96.9046 68.354 96.9752 67.4057C97.0215 66.7855 97.1155 66.2211 97.1843 66.1514C97.2706 66.0641 97.6366 66.2903 98.3634 66.8805C98.943 67.351 99.3658 67.6403 99.303 67.5233C99.2402 67.4063 98.6761 66.7515 98.0495 66.0684C97.1711 65.1107 96.8795 64.7046 96.7764 64.2955C96.5432 63.3705 96.4968 62.6583 96.6305 62.0554C96.779 61.3846 96.7273 61.2138 96.5268 61.7128ZM78.9916 62.5726C78.9938 63.7695 79.2469 64.8622 79.7829 65.9902C80.5597 67.6244 82.1164 68.9612 83.2425 68.9612C83.8295 68.9612 83.8279 68.8393 83.2275 67.7997C82.8803 67.1983 82.6658 66.5958 82.4284 65.5546C81.8717 63.1131 81.3629 62.3694 79.9092 61.8726C79.5106 61.7364 79.1407 61.625 79.0872 61.625C79.0337 61.625 78.9906 62.0513 78.9916 62.5726ZM182.453 67.1806C180.804 67.5848 179.306 68.7349 178.614 70.1271C178.269 70.8217 178.251 70.9294 178.251 72.3913C178.251 73.9147 178.255 73.9333 178.697 74.8367C178.999 75.4527 179.39 75.9934 179.906 76.5082C180.827 77.4274 181.212 77.7084 183.085 78.8268C185.728 80.4057 186.624 81.2462 187.135 82.6293C187.32 83.1298 187.366 83.446 187.306 83.8096C187.07 85.2455 186.193 86.5354 185.031 87.1558C184.469 87.4558 184.295 87.4853 183.085 87.4853C181.98 87.4853 181.661 87.441 181.194 87.2225C180.086 86.7042 179.363 85.6905 179.048 84.2141C178.891 83.4735 178.621 83.1902 178.201 83.3249C177.891 83.4246 177.829 83.8711 177.829 86.0082V87.8629L178.825 88.192C180.68 88.8047 182.215 88.9852 183.87 88.7854C185.93 88.5368 187.451 87.8222 188.799 86.4694C190.605 84.6578 190.993 82.2459 189.848 79.9588C189.246 78.7565 188.118 77.8053 184.353 75.3229C182.502 74.102 181.442 73.1101 181.143 72.3186C180.837 71.5083 180.947 70.4478 181.406 69.7859C182.128 68.7426 183.796 68.0991 185.291 68.2867C186.6 68.4509 187.28 68.9116 187.822 70.0005C188.28 70.9222 188.544 71.1621 189.099 71.1621H189.574L189.505 70.3368C189.467 69.8828 189.403 69.0897 189.362 68.5742C189.267 67.3639 189.166 67.2707 187.781 67.1233C186.27 66.9625 183.208 66.9955 182.453 67.1806ZM112.774 67.4748C111.841 67.6339 111.881 68.3252 112.834 68.5129C114.067 68.7557 114.085 68.8706 114.274 77.2757C114.41 83.3764 114.48 84.0986 115.026 85.1399C115.8 86.6174 117.493 87.9882 119.211 88.5291C120.114 88.8135 122.798 88.9477 124.291 88.783C125.608 88.6377 126.868 88.0973 128.115 87.1422C128.862 86.5707 129.717 85.4762 130.054 84.6599C130.539 83.4851 130.745 81.0075 130.889 74.6468C131.007 69.3968 131.124 68.7199 131.938 68.5861C132.702 68.4604 133.007 67.9765 132.559 67.6006C132.268 67.3559 126.725 67.3559 126.434 67.6006C125.982 67.9806 126.324 68.4291 127.192 68.5941C128.582 68.858 128.59 68.9027 128.59 75.9918C128.59 82.1633 128.538 82.7892 127.917 84.0863C127.494 84.9691 126.407 86.0386 125.456 86.508C124.33 87.0631 122.861 87.1978 121.385 86.8813C119.81 86.5435 118.673 85.6898 118.064 84.3876C117.774 83.7684 117.727 83.4743 117.62 81.6163C117.547 80.3465 117.536 77.4678 117.592 74.2184L117.683 68.8992L118.383 68.6747C119.36 68.3617 119.878 67.7735 119.377 67.5467C119.113 67.4273 113.416 67.3652 112.774 67.4748ZM137.774 67.4518C136.941 67.6299 136.972 67.607 137.011 68.0174C137.048 68.4086 137.052 68.4108 137.959 68.5371C139.146 68.7024 139.628 68.9892 140.009 69.7581L140.311 70.3673L140.307 77.2757C140.302 86.334 140.256 86.6354 138.801 87.1536C137.786 87.515 137.522 87.8251 137.903 88.2103C138.067 88.3757 138.561 88.4023 141.475 88.4023C143.576 88.4023 144.947 88.3544 145.092 88.2758C145.639 87.9792 145.173 87.4281 144.122 87.1296C143.176 86.861 142.849 86.5771 142.672 85.8684C142.387 84.7303 142.246 74.1463 142.499 72.8937C142.577 72.5048 142.55 72.4784 145.19 75.5027C151.122 82.2989 156.273 87.8735 156.949 88.2303C157.129 88.3249 157.515 88.4023 157.807 88.4023H158.339L158.424 80.4853C158.515 72.0494 158.627 69.2584 158.884 69.0149C158.97 68.9341 159.402 68.7484 159.846 68.602C161.24 68.1424 161.243 67.7017 159.853 67.5709C158.677 67.4601 154.134 67.4401 153.814 67.5444C153.641 67.6006 153.543 67.7296 153.544 67.8996C153.547 68.31 153.681 68.4351 154.216 68.5255C154.742 68.6145 155.32 68.9334 155.958 69.4864L156.352 69.8281L156.367 76.17C156.375 79.658 156.34 82.554 156.289 82.6053C156.16 82.7373 155.732 82.3048 153.319 79.5988C152.149 78.2875 151.136 77.1546 151.068 77.0815C149.894 75.8204 144.902 70.248 143.728 68.8882L142.557 67.5314L141.446 67.4515C140.259 67.3663 138.172 67.3664 137.774 67.4518ZM165.725 67.4602C165.193 67.517 164.968 67.7529 165.066 68.1489C165.126 68.3933 165.239 68.4537 165.764 68.5242C166.669 68.6458 167.175 68.8935 167.331 69.2916C167.515 69.7632 167.715 78.1411 167.637 82.1054C167.553 86.4151 167.415 86.8972 166.189 87.1837C165.845 87.2638 165.442 87.4071 165.293 87.5019C164.959 87.7136 164.94 88.1053 165.254 88.2758C165.4 88.3549 166.832 88.4023 169.068 88.4023C171.305 88.4023 172.736 88.3549 172.883 88.2758C173.381 88.0059 173.022 87.3019 172.387 87.3019C171.878 87.3019 171.229 86.95 171.059 86.5818C170.697 85.8007 170.579 70.0812 170.93 69.4503C171.172 69.0166 171.495 68.8057 172.255 68.5862C173.394 68.2576 173.43 67.6263 172.318 67.4742C171.699 67.3893 166.492 67.3783 165.725 67.4602ZM193.505 67.489C192.908 67.6061 192.843 67.6901 193.056 68.0693C193.17 68.2722 193.42 68.4412 193.751 68.5395C194.035 68.6238 194.402 68.7817 194.566 68.8903C195.173 69.2928 196.217 71.7748 200.248 82.3943C201.534 85.7812 202.602 88.5658 202.622 88.5824C202.643 88.5992 203.072 88.6465 203.576 88.6877L204.493 88.7627L204.89 87.6961C206.817 82.5151 209.43 75.6256 209.666 75.1054C209.825 74.7524 210.005 74.4634 210.064 74.4634C210.21 74.4634 210.34 74.764 211.358 77.4591C212.493 80.4629 213.79 83.881 214.815 86.5683L215.631 88.708L216.055 88.7454C216.288 88.7661 216.696 88.7237 216.962 88.6512C217.423 88.5256 217.462 88.4752 217.806 87.5744C220.789 79.7702 224.658 69.9048 224.897 69.491C225.129 69.0916 225.383 68.8683 225.916 68.5961C226.636 68.2281 226.945 67.8044 226.634 67.61C226.216 67.349 221.148 67.3015 220.566 67.5532C220.409 67.6211 220.358 67.7542 220.384 68.0293C220.42 68.3996 220.445 68.415 221.233 68.5458C222.176 68.7024 222.415 68.8612 222.415 69.3329C222.415 69.8126 220.675 74.8239 218.489 80.6381C217.315 83.7602 217.121 84.1993 216.983 84.0452C216.763 83.801 214.58 77.7954 213.122 73.428C212.135 70.4702 212 69.7825 212.281 69.1571C212.441 68.8033 212.574 68.7349 213.473 68.5437C214.052 68.4207 214.143 68.3617 214.174 68.0905C214.246 67.4715 214.065 67.4359 210.646 67.3968C207.163 67.3569 206.141 67.4377 205.935 67.7691C205.73 68.0985 205.97 68.3622 206.692 68.6003C208.457 69.1827 208.986 70.4353 208.393 72.6318C208.04 73.9429 206.294 78.8607 204.363 83.9876L204.207 84.4027L203.837 83.4985C202.88 81.1601 199.455 71.5983 199.157 70.4363C198.932 69.5561 198.922 68.9121 199.133 68.7354C199.22 68.6619 199.603 68.5648 199.984 68.5196C200.746 68.429 201.017 68.1743 200.796 67.7565C200.707 67.5895 200.479 67.5091 199.928 67.4508C198.94 67.3464 194.085 67.3753 193.505 67.489ZM234.125 67.8714L233.33 68.2468L229.913 76.8878C228.034 81.6405 226.317 85.8591 226.097 86.2626C225.582 87.2089 225.263 87.5017 224.459 87.7621C223.859 87.9568 223.804 88.0048 223.804 88.3412V88.708H227.429H231.054L231.094 88.4262C231.151 88.016 230.956 87.8487 230.228 87.6839C229.788 87.5842 229.468 87.4188 229.231 87.1683C228.686 86.5925 228.753 85.8573 229.576 83.41C229.946 82.3119 230.268 81.3933 230.292 81.3687C230.316 81.3441 231.857 81.2897 233.716 81.2479C236.399 81.1875 237.157 81.205 237.391 81.3332C237.696 81.4996 238.531 83.3455 239.113 85.1403L239.384 85.9743L239.054 86.6128C238.697 87.3029 238.317 87.598 237.613 87.7314C237.083 87.8319 236.881 88.0392 236.935 88.4262L236.975 88.708H241.023H245.07L245.107 88.3918C245.15 88.0145 245.002 87.884 244.3 87.6806C243.238 87.3727 242.735 86.4717 240.781 81.3718C239.624 78.3518 238.28 74.8551 235.929 68.7473C235.368 67.2903 235.362 67.2877 234.125 67.8714ZM249.797 67.6351C247.41 67.7657 247.137 67.829 247.086 68.2642C247.044 68.6323 247.15 68.6983 248.298 69.018C248.678 69.1236 249.14 69.3419 249.325 69.503L249.662 69.796V78.0904C249.662 87.5973 249.733 86.9747 248.596 87.4776C248.252 87.63 247.818 87.792 247.633 87.8376C247.251 87.9315 247.035 88.3531 247.203 88.6775C247.305 88.8743 247.618 88.8914 251.112 88.8914C254.786 88.8914 254.914 88.8835 255.039 88.6469C255.259 88.2303 254.996 87.9611 254.1 87.6855C253.196 87.4078 252.8 87.0735 252.619 86.4359C252.473 85.9186 252.462 79.9656 252.608 79.9656C252.666 79.9656 252.781 80.048 252.864 80.1487C253.377 80.7742 256.63 81.1514 258.228 80.7707C260.429 80.2465 262.054 78.7278 262.74 76.554C263.002 75.7239 263.028 75.4623 262.983 74.0966C262.924 72.3078 262.658 71.3157 261.951 70.2527C261.051 68.8965 259.439 67.9306 257.565 67.6229C256.67 67.476 252.587 67.4825 249.797 67.6351ZM256.718 69.2621C258.124 69.6407 259.096 70.5903 259.64 72.1148C259.895 72.8298 259.932 73.1469 259.932 74.5857C259.932 76.1234 259.91 76.2845 259.606 76.9406C259.056 78.1292 258.104 78.7979 256.511 79.115C255.455 79.3253 253.793 79.2098 253.075 78.8761L252.501 78.6092V74.406V70.2027L252.814 69.8272C252.999 69.6038 253.354 69.3806 253.69 69.2761C254.425 69.0472 255.895 69.0405 256.718 69.2621ZM89.0187 71.0379C89.0187 72.5806 89.6563 73.7876 91.0612 74.9048C91.9512 75.6124 92.8519 76.0823 95.7002 77.3246C98.3755 78.4914 99.5815 79.161 100.279 79.8668C100.801 80.3949 101.339 81.4336 101.344 81.922C101.35 82.4985 101.533 82.5857 101.753 82.1166C102.195 81.1745 102.333 80.5889 102.39 79.4154C102.492 77.3125 101.885 75.7297 100.466 74.3948C98.9781 72.9956 97.5268 72.4577 93.5498 71.8309C91.6853 71.5372 90.5437 71.1867 89.7406 70.6615L89.0187 70.1893V71.0379ZM235.169 75.129C235.928 77.005 236.58 78.6406 236.619 78.7637C236.685 78.9761 236.548 78.9875 233.902 78.9875C232.369 78.9875 231.115 78.9611 231.115 78.9288C231.115 78.8965 231.462 77.8649 231.887 76.6362C232.312 75.4076 232.869 73.7836 233.125 73.0275C233.382 72.2715 233.636 71.6675 233.691 71.6854C233.745 71.7034 234.411 73.2529 235.169 75.129ZM81.19 72.2168C80.1795 72.7337 79.7664 74.276 80.4669 74.9157C81.0264 75.4266 83.1502 75.0143 83.6454 74.2987C84.0106 73.7711 83.7089 72.9013 82.9772 72.3724C82.5252 72.0456 81.6702 71.9712 81.19 72.2168ZM82.6354 72.5872C82.9326 72.8594 82.9139 73.1861 82.5877 73.4172C82.0696 73.7845 81.1647 73.5167 81.1647 72.9962C81.1647 72.4689 82.1938 72.1828 82.6354 72.5872ZM91.7616 77.2451C92.1604 78.7802 91.7566 80.4007 90.7446 81.3258C90.0311 81.9781 89.295 82.2777 87.6039 82.604C85.3256 83.0434 84.2162 83.3525 83.3618 83.7859C82.56 84.1923 82.2427 84.4684 82.7469 84.3208C83.707 84.0396 84.8157 83.8649 86.3604 83.7515C88.5293 83.5923 89.5043 83.3928 90.4349 82.9174C91.3431 82.4535 92.1903 81.5206 92.4806 80.665C92.7489 79.8736 92.7452 78.6325 92.4722 77.887C92.2628 77.3154 91.7958 76.5444 91.6582 76.5429C91.6147 76.5424 91.6612 76.8585 91.7616 77.2451ZM93.5375 77.6627C93.3688 77.9389 93.3391 79.5763 93.4909 80.228C93.7019 81.1334 94.1674 82.0314 95.6045 84.3063C97.141 86.738 97.4503 87.3552 97.6717 88.4291C97.8708 89.3959 97.7768 90.2192 97.3575 91.1784C97.222 91.4881 97.1364 91.7668 97.1668 91.7977C97.1974 91.8285 97.4291 91.7282 97.6818 91.5749C99.592 90.4152 100.734 88.6049 101.002 86.3104C101.328 83.5213 100.19 81.3922 97.4758 79.7105C96.4493 79.0745 93.7523 77.5202 93.6752 77.5202C93.6473 77.5202 93.5853 77.5843 93.5375 77.6627ZM71.9156 82.8979C72.5172 83.1294 72.5905 84.0761 72.0353 84.4442C71.5322 84.7779 70.9813 84.2059 71.3988 83.7834C71.5078 83.6731 71.4938 83.5867 71.3384 83.4131C71.0781 83.1221 71.0812 82.9325 71.3473 82.8621C71.4636 82.8314 71.5688 82.7999 71.5811 82.7921C71.5934 82.7842 71.7439 82.8319 71.9156 82.8979ZM82.4334 85.7709C81.468 85.9859 80.1908 86.4829 79.2814 86.9976C78.4049 87.4936 76.7689 88.7634 76.872 88.8677C76.9116 88.9078 77.4051 89.0351 77.9688 89.1505C79.4193 89.4478 79.968 89.7614 81.3085 91.0594C81.9577 91.6881 82.7211 92.3092 83.005 92.4395C83.7395 92.7768 84.7581 92.7622 85.2742 92.4067C85.9768 91.9229 86.1792 91.533 86.1792 90.6634C86.1792 89.9686 86.1411 89.8455 85.8225 89.5089C85.1404 88.7885 83.9728 88.761 83.5237 89.4546C83.2486 89.8794 83.3298 90.4676 83.6971 90.7117L83.994 90.9089L83.7202 90.5329C83.4842 90.2089 83.4662 90.113 83.5899 89.8382C83.8905 89.1706 85.0068 89.1381 85.4538 89.7839C85.8667 90.3804 85.491 91.6129 84.8465 91.7767C83.2052 92.1935 81.8687 90.3731 82.8702 89.0847C83.9757 87.6626 86.5753 88.4334 87.5187 90.4632C88.6196 92.8315 88.9732 93.4992 89.3507 93.922C90.3549 95.0468 91.7974 95.3234 93.1873 94.6575C93.586 94.4664 93.9868 94.2189 94.0779 94.1075C94.2316 93.9196 94.2061 93.9184 93.7274 94.0893C92.4705 94.538 91.2656 94.4297 90.6483 93.8126C90.1373 93.3016 89.9087 92.6588 89.5739 90.7908C89.2139 88.7827 88.8084 87.8323 87.9832 87.0625C86.6672 85.835 84.4564 85.3205 82.4334 85.7709Z" fill="white"/>
<defs>
<linearGradient id="paint0_linear_1_12527" x1="35.3584" y1="-6.84821e-05" x2="709.035" y2="86.996" gradientUnits="userSpaceOnUse">
<stop stop-color="#1643C3"/>
<stop offset="1" stop-color="#369EFE"/>
</linearGradient>
</defs>
</svg>
