<svg width="327" height="146" viewBox="0 0 327 146" fill="none" xmlns="http://www.w3.org/2000/svg">
<rect width="326.348" height="145.583" transform="translate(0.651123 0.0145721)" fill="url(#paint0_linear_1_12492)"/>
<path fill-rule="evenodd" clip-rule="evenodd" d="M99.4099 39.4456C97.1314 40.057 95.5182 41.0241 93.7405 42.8443C91.9374 44.6908 91.0134 46.3262 90.4118 48.7341C90.0186 50.3092 90.0007 51.152 90.0007 68.1459V85.9111H94.0598H98.1189V76.3186V66.7262H108.839H119.559V62.4628V58.1995H108.839H98.1189V54.7603C98.1189 52.6568 98.2184 50.9804 98.3749 50.4437C98.7053 49.3111 100.055 47.9285 101.161 47.5902C101.79 47.398 104.8 47.3281 112.454 47.3281H122.89V43.1713V39.0146L111.909 39.0263C101.788 39.0372 100.81 39.07 99.4099 39.4456ZM131.167 53.8829C131.103 67.5377 131.067 68.847 130.721 69.9237C129.509 73.6959 126.543 76.5037 122.946 77.2845C121.911 77.509 119.945 77.5913 115.552 77.594L109.568 77.5976V81.7544V85.9111L115.864 85.9094C124.039 85.9075 125.598 85.6455 129.311 83.6505C134.061 81.0983 137.347 76.8253 138.749 71.377C139.195 69.6459 139.207 69.2409 139.281 54.3092L139.357 39.0146H135.297H131.237L131.167 53.8829ZM156.149 39.3456C154.402 39.7794 152.652 40.7623 151.236 42.1046C149.769 43.496 148.846 44.8952 148.097 46.8636L147.556 48.2873L147.498 67.0992L147.439 85.9111H158.884C166.379 85.9111 170.71 85.8303 171.432 85.6773C175.206 84.8773 178.501 81.8684 179.904 77.9391L180.445 76.4252L180.505 57.7199L180.564 39.0146L168.952 39.0323C159.812 39.0463 157.086 39.1131 156.149 39.3456ZM203.967 39.3384C198.07 40.4929 193.353 44.1378 190.732 49.5663C188.71 53.7525 188.792 52.9038 188.716 70.5099L188.649 85.9111H192.718H196.786L196.789 71.5757C196.792 59.9473 196.849 56.9679 197.091 55.7971C197.909 51.8467 201.038 48.594 204.923 47.6563C205.951 47.408 207.651 47.3336 212.345 47.3312L218.434 47.3281V43.1713V39.0146L211.929 39.0338C207.433 39.0472 204.974 39.1412 203.967 39.3384ZM229.883 47.5318V56.0491L221.816 56.1118C214.569 56.1681 213.645 56.2145 212.71 56.5697C210.142 57.5449 207.551 59.7744 206.401 61.999C205.021 64.6691 205.035 64.5391 204.953 75.7324L204.878 85.9111L216.392 85.9079C229.092 85.9045 229.428 85.8757 231.841 84.5799C233.6 83.6352 235.886 81.2626 236.718 79.5161C238.001 76.8262 237.993 76.9611 237.997 57.0804L238.001 39.0146H233.942H229.883V47.5318ZM172.386 61.3815C172.328 75.1951 172.32 75.4451 171.898 76.0236C171.662 76.3472 171.21 76.8098 170.894 77.0515C170.343 77.4732 170.02 77.4936 162.945 77.552L155.57 77.6132V63.8169C155.57 50.1472 155.575 50.012 156.017 49.0764C156.82 47.3767 157.025 47.3381 165.309 47.3327L172.445 47.3281L172.386 61.3815ZM229.883 69.6431C229.883 74.5206 229.851 74.9714 229.454 75.8122C229.142 76.4708 228.782 76.8396 228.139 77.1585C227.297 77.5757 226.897 77.5976 220.125 77.5976H212.996L213.061 72.1086C213.158 63.874 212.529 64.3813 222.646 64.3813H229.883V69.6431ZM115.754 94.4448C113.235 95.0922 111.878 96.6477 111.452 99.3758C110.756 103.839 113.273 107.015 117.507 107.015C119.295 107.015 120.807 106.356 121.914 105.095C123.03 103.825 123.42 102.575 123.382 100.396C123.317 96.695 121.303 94.5456 117.686 94.3152C117.056 94.2751 116.187 94.3335 115.754 94.4448ZM90.0007 100.62V106.588H91.2497H92.4986V104.243V101.899H95.7251H98.9515V100.62V99.3406H95.7251H92.4986V98.2748V97.2089H95.7251H98.9515V95.9299V94.6509H94.4761H90.0007V100.62ZM136.041 99.1696C136.117 104.345 136.259 104.912 137.729 105.908C138.449 106.396 138.82 106.48 140.589 106.552C141.807 106.603 142.916 106.536 143.358 106.387C144.292 106.071 145.485 104.729 145.772 103.672C145.893 103.224 145.993 101.006 145.994 98.7437L145.995 94.6296L144.798 94.6936L143.601 94.7575L143.497 98.9143C143.44 101.2 143.312 103.201 143.212 103.359C142.938 103.794 141.736 104.243 140.85 104.243C140.234 104.242 138.932 103.703 138.669 103.341C138.646 103.31 138.576 101.366 138.513 99.0208L138.397 94.7575L137.185 94.6931L135.974 94.6288L136.041 99.1696ZM159.109 100.613V106.588H160.354H161.6L161.655 101.123L161.711 95.6581L162.513 99.2581C162.953 101.238 163.504 103.697 163.737 104.723L164.159 106.588H166.633H169.107L169.052 100.673L168.997 94.7575L167.803 94.6938L166.61 94.6298L166.554 100.302L166.499 105.975L165.25 100.366L164.001 94.7575L161.555 94.6974L159.109 94.6375V100.613ZM182.371 94.7705C182.285 94.8611 182.215 97.5671 182.215 100.784V106.632L185.597 106.543C189.494 106.441 190.329 106.199 191.461 104.845C192.315 103.823 192.623 102.663 192.62 100.472C192.617 97.7702 191.422 95.8116 189.336 95.0894C188.46 94.7863 182.61 94.5183 182.371 94.7705ZM205.459 94.7931C205.382 94.8711 205.32 97.557 205.32 100.762V106.588H206.569H207.818V104.243V101.899H208.536C209.213 101.899 209.349 102.034 210.878 104.238L212.501 106.578L213.919 106.583C214.999 106.587 215.299 106.525 215.178 106.322C215.091 106.175 214.382 105.145 213.601 104.032L212.182 102.009L213.096 101.687C214.895 101.055 215.389 100.197 215.276 97.9015C215.203 96.4313 215.148 96.2665 214.537 95.7078C214.174 95.3755 213.52 95.0022 213.085 94.8784C212.226 94.6341 205.686 94.5608 205.459 94.7931ZM226.968 94.7776C226.968 94.8473 227.905 96.2527 229.05 97.9007L231.132 100.897V103.743V106.588H232.38H233.629V103.788V100.988L235.611 98.1464C236.7 96.5837 237.647 95.1581 237.715 94.9781C237.817 94.7049 237.616 94.6509 236.492 94.6509H235.146L233.826 96.5694C233.1 97.6246 232.454 98.4837 232.391 98.4785C232.328 98.4734 231.687 97.6101 230.967 96.5601L229.657 94.6509H228.313C227.573 94.6509 226.968 94.7079 226.968 94.7776ZM118.414 96.8033C119.465 97.0953 120.543 98.1371 120.809 99.118C121.661 102.261 119.902 104.865 117.11 104.593C115.13 104.401 114.032 103.298 113.797 101.268C113.555 99.1786 114.614 97.227 116.18 96.8736C116.493 96.8031 116.843 96.7133 116.957 96.6741C117.33 96.547 117.568 96.5681 118.414 96.8033ZM211.843 97.1356C212.818 97.3006 213.223 97.9725 212.852 98.8077C212.619 99.3312 212.572 99.3406 210.216 99.3406H207.818V98.1682V96.9958L209.431 96.9981C210.318 96.9994 211.404 97.0612 211.843 97.1356ZM188.654 97.5984C189.635 98.1366 190.125 99.1624 190.125 100.677C190.125 103.237 189.316 104.009 186.443 104.193L184.712 104.304V100.756V97.2089H186.329C187.497 97.2089 188.142 97.317 188.654 97.5984Z" fill="white"/>
<defs>
<linearGradient id="paint0_linear_1_12492" x1="35.3584" y1="-6.84821e-05" x2="709.035" y2="86.996" gradientUnits="userSpaceOnUse">
<stop stop-color="#1643C3"/>
<stop offset="1" stop-color="#369EFE"/>
</linearGradient>
</defs>
</svg>
